<?xml version="1.0" encoding="UTF-8" standalone="no"?>
<!DOCTYPE svg PUBLIC "-//W3C//DTD SVG 1.1//EN"
 "http://www.w3.org/Graphics/SVG/1.1/DTD/svg11.dtd">
<!-- Generated by graphviz version 2.43.0 (0)
 -->
<!-- Title: snakemake_dag Pages: 1 -->
<svg width="966pt" height="692pt"
 viewBox="0.00 0.00 966.00 692.00" xmlns="http://www.w3.org/2000/svg" xmlns:xlink="http://www.w3.org/1999/xlink">
<g id="graph0" class="graph" transform="scale(1 1) rotate(0) translate(4 688)">
<title>snakemake_dag</title>
<polygon fill="white" stroke="transparent" points="-4,4 -4,-688 962,-688 962,4 -4,4"/>
<!-- 0 -->
<g id="node1" class="node">
<title>0</title>
<path fill="none" stroke="#56d8c9" stroke-width="2" d="M604.5,-36C604.5,-36 574.5,-36 574.5,-36 568.5,-36 562.5,-30 562.5,-24 562.5,-24 562.5,-12 562.5,-12 562.5,-6 568.5,0 574.5,0 574.5,0 604.5,0 604.5,0 610.5,0 616.5,-6 616.5,-12 616.5,-12 616.5,-24 616.5,-24 616.5,-30 610.5,-36 604.5,-36"/>
<text text-anchor="middle" x="589.5" y="-15.5" font-family="sans" font-size="10.00">all</text>
</g>
<!-- 1 -->
<g id="node2" class="node">
<title>1</title>
<path fill="none" stroke="#56d89a" stroke-width="2" d="M620.5,-108C620.5,-108 558.5,-108 558.5,-108 552.5,-108 546.5,-102 546.5,-96 546.5,-96 546.5,-84 546.5,-84 546.5,-78 552.5,-72 558.5,-72 558.5,-72 620.5,-72 620.5,-72 626.5,-72 632.5,-78 632.5,-84 632.5,-84 632.5,-96 632.5,-96 632.5,-102 626.5,-108 620.5,-108"/>
<text text-anchor="middle" x="589.5" y="-87.5" font-family="sans" font-size="10.00">finished_clean</text>
</g>
<!-- 1&#45;&gt;0 -->
<g id="edge1" class="edge">
<title>1&#45;&gt;0</title>
<path fill="none" stroke="grey" stroke-width="2" d="M589.5,-71.7C589.5,-63.98 589.5,-54.71 589.5,-46.11"/>
<polygon fill="grey" stroke="grey" stroke-width="2" points="593,-46.1 589.5,-36.1 586,-46.1 593,-46.1"/>
</g>
<!-- 2 -->
<g id="node3" class="node">
<title>2</title>
<path fill="none" stroke="#5673d8" stroke-width="2" d="M400.5,-180C400.5,-180 358.5,-180 358.5,-180 352.5,-180 346.5,-174 346.5,-168 346.5,-168 346.5,-156 346.5,-156 346.5,-150 352.5,-144 358.5,-144 358.5,-144 400.5,-144 400.5,-144 406.5,-144 412.5,-150 412.5,-156 412.5,-156 412.5,-168 412.5,-168 412.5,-174 406.5,-180 400.5,-180"/>
<text text-anchor="middle" x="379.5" y="-159.5" font-family="sans" font-size="10.00">nucl_align</text>
</g>
<!-- 2&#45;&gt;1 -->
<g id="edge2" class="edge">
<title>2&#45;&gt;1</title>
<path fill="none" stroke="grey" stroke-width="2" d="M412.78,-149.91C446.04,-138.82 497.7,-121.6 536.59,-108.64"/>
<polygon fill="grey" stroke="grey" stroke-width="2" points="537.81,-111.92 546.19,-105.44 535.59,-105.28 537.81,-111.92"/>
</g>
<!-- 3 -->
<g id="node4" class="node">
<title>3</title>
<path fill="none" stroke="#afd856" stroke-width="2" d="M338,-252C338,-252 279,-252 279,-252 273,-252 267,-246 267,-240 267,-240 267,-228 267,-228 267,-222 273,-216 279,-216 279,-216 338,-216 338,-216 344,-216 350,-222 350,-228 350,-228 350,-240 350,-240 350,-246 344,-252 338,-252"/>
<text text-anchor="middle" x="308.5" y="-231.5" font-family="sans" font-size="10.00">nucl_align_all</text>
</g>
<!-- 3&#45;&gt;2 -->
<g id="edge7" class="edge">
<title>3&#45;&gt;2</title>
<path fill="none" stroke="grey" stroke-width="2" d="M326.05,-215.7C334.73,-207.14 345.36,-196.66 354.85,-187.3"/>
<polygon fill="grey" stroke="grey" stroke-width="2" points="357.49,-189.62 362.15,-180.1 352.57,-184.63 357.49,-189.62"/>
</g>
<!-- 4 -->
<g id="node5" class="node">
<title>4</title>
<path fill="none" stroke="#d85656" stroke-width="2" d="M189.5,-324C189.5,-324 159.5,-324 159.5,-324 153.5,-324 147.5,-318 147.5,-312 147.5,-312 147.5,-300 147.5,-300 147.5,-294 153.5,-288 159.5,-288 159.5,-288 189.5,-288 189.5,-288 195.5,-288 201.5,-294 201.5,-300 201.5,-300 201.5,-312 201.5,-312 201.5,-318 195.5,-324 189.5,-324"/>
<text text-anchor="middle" x="174.5" y="-303.5" font-family="sans" font-size="10.00">VIRIDIC</text>
</g>
<!-- 4&#45;&gt;3 -->
<g id="edge8" class="edge">
<title>4&#45;&gt;3</title>
<path fill="none" stroke="grey" stroke-width="2" d="M201.62,-290.83C220.27,-281.09 245.41,-267.96 266.62,-256.88"/>
<polygon fill="grey" stroke="grey" stroke-width="2" points="268.5,-259.85 275.74,-252.11 265.26,-253.64 268.5,-259.85"/>
</g>
<!-- 5 -->
<g id="node6" class="node">
<title>5</title>
<path fill="none" stroke="#d89556" stroke-width="2" d="M143.5,-396C143.5,-396 71.5,-396 71.5,-396 65.5,-396 59.5,-390 59.5,-384 59.5,-384 59.5,-372 59.5,-372 59.5,-366 65.5,-360 71.5,-360 71.5,-360 143.5,-360 143.5,-360 149.5,-360 155.5,-366 155.5,-372 155.5,-372 155.5,-384 155.5,-384 155.5,-390 149.5,-396 143.5,-396"/>
<text text-anchor="middle" x="107.5" y="-375.5" font-family="sans" font-size="10.00">VIRIDIC_prepare</text>
</g>
<!-- 5&#45;&gt;4 -->
<g id="edge9" class="edge">
<title>5&#45;&gt;4</title>
<path fill="none" stroke="grey" stroke-width="2" d="M124.06,-359.7C132.18,-351.22 142.09,-340.86 150.97,-331.58"/>
<polygon fill="grey" stroke="grey" stroke-width="2" points="153.74,-333.75 158.13,-324.1 148.69,-328.91 153.74,-333.75"/>
</g>
<!-- 6 -->
<g id="node7" class="node">
<title>6</title>
<path fill="none" stroke="#9fd856" stroke-width="2" d="M111.5,-540C111.5,-540 19.5,-540 19.5,-540 13.5,-540 7.5,-534 7.5,-528 7.5,-528 7.5,-516 7.5,-516 7.5,-510 13.5,-504 19.5,-504 19.5,-504 111.5,-504 111.5,-504 117.5,-504 123.5,-510 123.5,-516 123.5,-516 123.5,-528 123.5,-528 123.5,-534 117.5,-540 111.5,-540"/>
<text text-anchor="middle" x="65.5" y="-519.5" font-family="sans" font-size="10.00">catch_nucl_neibours</text>
</g>
<!-- 6&#45;&gt;5 -->
<g id="edge10" class="edge">
<title>6&#45;&gt;5</title>
<path fill="none" stroke="grey" stroke-width="2" d="M54.37,-503.94C43.87,-485.52 31.27,-455.64 42.5,-432 48.07,-420.27 57.64,-410.28 67.76,-402.25"/>
<polygon fill="grey" stroke="grey" stroke-width="2" points="69.95,-404.98 75.92,-396.22 65.8,-399.35 69.95,-404.98"/>
</g>
<!-- 8 -->
<g id="node9" class="node">
<title>8</title>
<path fill="none" stroke="#bed856" stroke-width="2" d="M151,-468C151,-468 64,-468 64,-468 58,-468 52,-462 52,-456 52,-456 52,-444 52,-444 52,-438 58,-432 64,-432 64,-432 151,-432 151,-432 157,-432 163,-438 163,-444 163,-444 163,-456 163,-456 163,-462 157,-468 151,-468"/>
<text text-anchor="middle" x="107.5" y="-447.5" font-family="sans" font-size="10.00">catch_neibours_fna</text>
</g>
<!-- 6&#45;&gt;8 -->
<g id="edge13" class="edge">
<title>6&#45;&gt;8</title>
<path fill="none" stroke="grey" stroke-width="2" d="M75.88,-503.7C80.76,-495.56 86.69,-485.69 92.08,-476.7"/>
<polygon fill="grey" stroke="grey" stroke-width="2" points="95.09,-478.48 97.24,-468.1 89.09,-474.88 95.09,-478.48"/>
</g>
<!-- 7 -->
<g id="node8" class="node">
<title>7</title>
<path fill="none" stroke="#56d85b" stroke-width="2" d="M119,-612C119,-612 12,-612 12,-612 6,-612 0,-606 0,-600 0,-600 0,-588 0,-588 0,-582 6,-576 12,-576 12,-576 119,-576 119,-576 125,-576 131,-582 131,-588 131,-588 131,-600 131,-600 131,-606 125,-612 119,-612"/>
<text text-anchor="middle" x="65.5" y="-597" font-family="sans" font-size="10.00">MMseqs_blastn</text>
<text text-anchor="middle" x="65.5" y="-586" font-family="sans" font-size="10.00">sample: vB_VpP_AC2_0</text>
</g>
<!-- 7&#45;&gt;6 -->
<g id="edge12" class="edge">
<title>7&#45;&gt;6</title>
<path fill="none" stroke="grey" stroke-width="2" d="M65.5,-575.7C65.5,-567.98 65.5,-558.71 65.5,-550.11"/>
<polygon fill="grey" stroke="grey" stroke-width="2" points="69,-550.1 65.5,-540.1 62,-550.1 69,-550.1"/>
</g>
<!-- 8&#45;&gt;5 -->
<g id="edge11" class="edge">
<title>8&#45;&gt;5</title>
<path fill="none" stroke="grey" stroke-width="2" d="M107.5,-431.7C107.5,-423.98 107.5,-414.71 107.5,-406.11"/>
<polygon fill="grey" stroke="grey" stroke-width="2" points="111,-406.1 107.5,-396.1 104,-406.1 111,-406.1"/>
</g>
<!-- 9 -->
<g id="node10" class="node">
<title>9</title>
<path fill="none" stroke="#56c1d8" stroke-width="2" d="M608,-180C608,-180 571,-180 571,-180 565,-180 559,-174 559,-168 559,-168 559,-156 559,-156 559,-150 565,-144 571,-144 571,-144 608,-144 608,-144 614,-144 620,-150 620,-156 620,-156 620,-168 620,-168 620,-174 614,-180 608,-180"/>
<text text-anchor="middle" x="589.5" y="-159.5" font-family="sans" font-size="10.00">TerL_tree</text>
</g>
<!-- 9&#45;&gt;1 -->
<g id="edge3" class="edge">
<title>9&#45;&gt;1</title>
<path fill="none" stroke="grey" stroke-width="2" d="M589.5,-143.7C589.5,-135.98 589.5,-126.71 589.5,-118.11"/>
<polygon fill="grey" stroke="grey" stroke-width="2" points="593,-118.1 589.5,-108.1 586,-118.1 593,-118.1"/>
</g>
<!-- 10 -->
<g id="node11" class="node">
<title>10</title>
<path fill="none" stroke="#d86656" stroke-width="2" d="M611.5,-252C611.5,-252 567.5,-252 567.5,-252 561.5,-252 555.5,-246 555.5,-240 555.5,-240 555.5,-228 555.5,-228 555.5,-222 561.5,-216 567.5,-216 567.5,-216 611.5,-216 611.5,-216 617.5,-216 623.5,-222 623.5,-228 623.5,-228 623.5,-240 623.5,-240 623.5,-246 617.5,-252 611.5,-252"/>
<text text-anchor="middle" x="589.5" y="-231.5" font-family="sans" font-size="10.00">TerL_clean</text>
</g>
<!-- 10&#45;&gt;9 -->
<g id="edge14" class="edge">
<title>10&#45;&gt;9</title>
<path fill="none" stroke="grey" stroke-width="2" d="M589.5,-215.7C589.5,-207.98 589.5,-198.71 589.5,-190.11"/>
<polygon fill="grey" stroke="grey" stroke-width="2" points="593,-190.1 589.5,-180.1 586,-190.1 593,-190.1"/>
</g>
<!-- 11 -->
<g id="node12" class="node">
<title>11</title>
<path fill="none" stroke="#80d856" stroke-width="2" d="M678,-396C678,-396 619,-396 619,-396 613,-396 607,-390 607,-384 607,-384 607,-372 607,-372 607,-366 613,-360 619,-360 619,-360 678,-360 678,-360 684,-360 690,-366 690,-372 690,-372 690,-384 690,-384 690,-390 684,-396 678,-396"/>
<text text-anchor="middle" x="648.5" y="-375.5" font-family="sans" font-size="10.00">MAFFT_iqtree</text>
</g>
<!-- 11&#45;&gt;10 -->
<g id="edge15" class="edge">
<title>11&#45;&gt;10</title>
<path fill="none" stroke="grey" stroke-width="2" d="M607.82,-359.88C592.98,-351.41 577.82,-339.59 569.5,-324 559.03,-304.37 566.08,-279.47 574.57,-261.01"/>
<polygon fill="grey" stroke="grey" stroke-width="2" points="577.73,-262.51 579.05,-252 571.46,-259.39 577.73,-262.51"/>
</g>
<!-- 16 -->
<g id="node17" class="node">
<title>16</title>
<path fill="none" stroke="#d8d356" stroke-width="2" d="M678.5,-324C678.5,-324 590.5,-324 590.5,-324 584.5,-324 578.5,-318 578.5,-312 578.5,-312 578.5,-300 578.5,-300 578.5,-294 584.5,-288 590.5,-288 590.5,-288 678.5,-288 678.5,-288 684.5,-288 690.5,-294 690.5,-300 690.5,-300 690.5,-312 690.5,-312 690.5,-318 684.5,-324 678.5,-324"/>
<text text-anchor="middle" x="634.5" y="-303.5" font-family="sans" font-size="10.00">phylotree_visualize</text>
</g>
<!-- 11&#45;&gt;16 -->
<g id="edge22" class="edge">
<title>11&#45;&gt;16</title>
<path fill="none" stroke="grey" stroke-width="2" d="M645.04,-359.7C643.5,-351.98 641.64,-342.71 639.92,-334.11"/>
<polygon fill="grey" stroke="grey" stroke-width="2" points="643.31,-333.22 637.92,-324.1 636.45,-334.6 643.31,-333.22"/>
</g>
<!-- 12 -->
<g id="node13" class="node">
<title>12</title>
<path fill="none" stroke="#56d8a9" stroke-width="2" d="M654,-468C654,-468 619,-468 619,-468 613,-468 607,-462 607,-456 607,-456 607,-444 607,-444 607,-438 613,-432 619,-432 619,-432 654,-432 654,-432 660,-432 666,-438 666,-444 666,-444 666,-456 666,-456 666,-462 660,-468 654,-468"/>
<text text-anchor="middle" x="636.5" y="-447.5" font-family="sans" font-size="10.00">find_terL</text>
</g>
<!-- 12&#45;&gt;11 -->
<g id="edge17" class="edge">
<title>12&#45;&gt;11</title>
<path fill="none" stroke="grey" stroke-width="2" d="M639.47,-431.7C640.79,-423.98 642.38,-414.71 643.85,-406.11"/>
<polygon fill="grey" stroke="grey" stroke-width="2" points="647.33,-406.55 645.57,-396.1 640.43,-405.37 647.33,-406.55"/>
</g>
<!-- 13 -->
<g id="node14" class="node">
<title>13</title>
<path fill="none" stroke="#56d88a" stroke-width="2" d="M538.5,-540C538.5,-540 462.5,-540 462.5,-540 456.5,-540 450.5,-534 450.5,-528 450.5,-528 450.5,-516 450.5,-516 450.5,-510 456.5,-504 462.5,-504 462.5,-504 538.5,-504 538.5,-504 544.5,-504 550.5,-510 550.5,-516 550.5,-516 550.5,-528 550.5,-528 550.5,-534 544.5,-540 538.5,-540"/>
<text text-anchor="middle" x="500.5" y="-519.5" font-family="sans" font-size="10.00">filter_All_BLASTp</text>
</g>
<!-- 13&#45;&gt;12 -->
<g id="edge18" class="edge">
<title>13&#45;&gt;12</title>
<path fill="none" stroke="grey" stroke-width="2" d="M533.77,-503.88C553.14,-493.91 577.64,-481.29 597.86,-470.89"/>
<polygon fill="grey" stroke="grey" stroke-width="2" points="599.52,-473.97 606.81,-466.28 596.32,-467.74 599.52,-473.97"/>
</g>
<!-- 18 -->
<g id="node19" class="node">
<title>18</title>
<path fill="none" stroke="#56d0d8" stroke-width="2" d="M490.5,-324C490.5,-324 428.5,-324 428.5,-324 422.5,-324 416.5,-318 416.5,-312 416.5,-312 416.5,-300 416.5,-300 416.5,-294 422.5,-288 428.5,-288 428.5,-288 490.5,-288 490.5,-288 496.5,-288 502.5,-294 502.5,-300 502.5,-300 502.5,-312 502.5,-312 502.5,-318 496.5,-324 490.5,-324"/>
<text text-anchor="middle" x="459.5" y="-303.5" font-family="sans" font-size="10.00">annotation_all</text>
</g>
<!-- 13&#45;&gt;18 -->
<g id="edge27" class="edge">
<title>13&#45;&gt;18</title>
<path fill="none" stroke="grey" stroke-width="2" d="M508.43,-503.64C521.16,-473.11 542.58,-408.44 520.5,-360 515.27,-348.53 506.2,-338.58 496.63,-330.5"/>
<polygon fill="grey" stroke="grey" stroke-width="2" points="498.57,-327.58 488.54,-324.16 494.25,-333.09 498.57,-327.58"/>
</g>
<!-- 20 -->
<g id="node21" class="node">
<title>20</title>
<path fill="none" stroke="#56a2d8" stroke-width="2" d="M441,-468C441,-468 404,-468 404,-468 398,-468 392,-462 392,-456 392,-456 392,-444 392,-444 392,-438 398,-432 404,-432 404,-432 441,-432 441,-432 447,-432 453,-438 453,-444 453,-444 453,-456 453,-456 453,-462 447,-468 441,-468"/>
<text text-anchor="middle" x="422.5" y="-447.5" font-family="sans" font-size="10.00">final_gbk</text>
</g>
<!-- 13&#45;&gt;20 -->
<g id="edge32" class="edge">
<title>13&#45;&gt;20</title>
<path fill="none" stroke="grey" stroke-width="2" d="M481.22,-503.7C471.58,-495.05 459.77,-484.45 449.27,-475.03"/>
<polygon fill="grey" stroke="grey" stroke-width="2" points="451.34,-472.18 441.56,-468.1 446.66,-477.39 451.34,-472.18"/>
</g>
<!-- 14 -->
<g id="node15" class="node">
<title>14</title>
<path fill="none" stroke="#70d856" stroke-width="2" d="M537.5,-612C537.5,-612 465.5,-612 465.5,-612 459.5,-612 453.5,-606 453.5,-600 453.5,-600 453.5,-588 453.5,-588 453.5,-582 459.5,-576 465.5,-576 465.5,-576 537.5,-576 537.5,-576 543.5,-576 549.5,-582 549.5,-588 549.5,-588 549.5,-600 549.5,-600 549.5,-606 543.5,-612 537.5,-612"/>
<text text-anchor="middle" x="501.5" y="-591.5" font-family="sans" font-size="10.00">Diamond_blastp</text>
</g>
<!-- 14&#45;&gt;13 -->
<g id="edge20" class="edge">
<title>14&#45;&gt;13</title>
<path fill="none" stroke="grey" stroke-width="2" d="M501.25,-575.7C501.14,-567.98 501.01,-558.71 500.89,-550.11"/>
<polygon fill="grey" stroke="grey" stroke-width="2" points="504.39,-550.05 500.74,-540.1 497.39,-550.15 504.39,-550.05"/>
</g>
<!-- 15 -->
<g id="node16" class="node">
<title>15</title>
<path fill="none" stroke="#56d87b" stroke-width="2" d="M651,-684C651,-684 544,-684 544,-684 538,-684 532,-678 532,-672 532,-672 532,-660 532,-660 532,-654 538,-648 544,-648 544,-648 651,-648 651,-648 657,-648 663,-654 663,-660 663,-660 663,-672 663,-672 663,-678 657,-684 651,-684"/>
<text text-anchor="middle" x="597.5" y="-669" font-family="sans" font-size="10.00">Prodigal</text>
<text text-anchor="middle" x="597.5" y="-658" font-family="sans" font-size="10.00">sample: vB_VpP_AC2_0</text>
</g>
<!-- 15&#45;&gt;12 -->
<g id="edge19" class="edge">
<title>15&#45;&gt;12</title>
<path fill="none" stroke="grey" stroke-width="2" d="M600.63,-647.85C607.39,-610.75 623.41,-522.81 631.56,-478.1"/>
<polygon fill="grey" stroke="grey" stroke-width="2" points="635.01,-478.7 633.36,-468.23 628.12,-477.44 635.01,-478.7"/>
</g>
<!-- 15&#45;&gt;14 -->
<g id="edge21" class="edge">
<title>15&#45;&gt;14</title>
<path fill="none" stroke="grey" stroke-width="2" d="M573.77,-647.7C561.56,-638.8 546.51,-627.82 533.32,-618.2"/>
<polygon fill="grey" stroke="grey" stroke-width="2" points="535.1,-615.17 524.96,-612.1 530.98,-620.82 535.1,-615.17"/>
</g>
<!-- 15&#45;&gt;18 -->
<g id="edge26" class="edge">
<title>15&#45;&gt;18</title>
<path fill="none" stroke="grey" stroke-width="2" d="M593.66,-647.61C588.1,-620.94 578.5,-568.27 578.5,-523 578.5,-523 578.5,-523 578.5,-449 578.5,-405.81 567.3,-393.05 539.5,-360 529.48,-348.09 516.12,-337.81 503.19,-329.56"/>
<polygon fill="grey" stroke="grey" stroke-width="2" points="504.71,-326.39 494.35,-324.18 501.07,-332.37 504.71,-326.39"/>
</g>
<!-- 15&#45;&gt;20 -->
<g id="edge31" class="edge">
<title>15&#45;&gt;20</title>
<path fill="none" stroke="grey" stroke-width="2" d="M531.94,-658.11C500.84,-651.37 465.88,-638.09 444.5,-612 413.38,-574.03 414.4,-513.3 418.25,-478.29"/>
<polygon fill="grey" stroke="grey" stroke-width="2" points="421.73,-478.66 419.5,-468.3 414.78,-477.79 421.73,-478.66"/>
</g>
<!-- 21 -->
<g id="node22" class="node">
<title>21</title>
<path fill="none" stroke="#61d856" stroke-width="2" d="M382,-540C382,-540 349,-540 349,-540 343,-540 337,-534 337,-528 337,-528 337,-516 337,-516 337,-510 343,-504 349,-504 349,-504 382,-504 382,-504 388,-504 394,-510 394,-516 394,-516 394,-528 394,-528 394,-534 388,-540 382,-540"/>
<text text-anchor="middle" x="365.5" y="-519.5" font-family="sans" font-size="10.00">EggNOG</text>
</g>
<!-- 15&#45;&gt;21 -->
<g id="edge34" class="edge">
<title>15&#45;&gt;21</title>
<path fill="none" stroke="grey" stroke-width="2" d="M531.7,-660.07C492.16,-654.07 442.99,-640.88 408.5,-612 389.45,-596.05 378.2,-569.68 372.01,-549.77"/>
<polygon fill="grey" stroke="grey" stroke-width="2" points="375.34,-548.69 369.22,-540.04 368.61,-550.62 375.34,-548.69"/>
</g>
<!-- 25 -->
<g id="node26" class="node">
<title>25</title>
<path fill="none" stroke="#d8b456" stroke-width="2" d="M704,-612C704,-612 657,-612 657,-612 651,-612 645,-606 645,-600 645,-600 645,-588 645,-588 645,-582 651,-576 657,-576 657,-576 704,-576 704,-576 710,-576 716,-582 716,-588 716,-588 716,-600 716,-600 716,-606 710,-612 704,-612"/>
<text text-anchor="middle" x="680.5" y="-591.5" font-family="sans" font-size="10.00">get_orf_list</text>
</g>
<!-- 15&#45;&gt;25 -->
<g id="edge37" class="edge">
<title>15&#45;&gt;25</title>
<path fill="none" stroke="grey" stroke-width="2" d="M618.02,-647.7C628.37,-638.97 641.09,-628.24 652.34,-618.75"/>
<polygon fill="grey" stroke="grey" stroke-width="2" points="654.83,-621.23 660.22,-612.1 650.32,-615.88 654.83,-621.23"/>
</g>
<!-- 29 -->
<g id="node30" class="node">
<title>29</title>
<path fill="none" stroke="#ced856" stroke-width="2" d="M808.5,-612C808.5,-612 746.5,-612 746.5,-612 740.5,-612 734.5,-606 734.5,-600 734.5,-600 734.5,-588 734.5,-588 734.5,-582 740.5,-576 746.5,-576 746.5,-576 808.5,-576 808.5,-576 814.5,-576 820.5,-582 820.5,-588 820.5,-588 820.5,-600 820.5,-600 820.5,-606 814.5,-612 808.5,-612"/>
<text text-anchor="middle" x="777.5" y="-591.5" font-family="sans" font-size="10.00">gene2genome</text>
</g>
<!-- 15&#45;&gt;29 -->
<g id="edge43" class="edge">
<title>15&#45;&gt;29</title>
<path fill="none" stroke="grey" stroke-width="2" d="M641.53,-647.88C666.65,-638.11 698.31,-625.8 724.75,-615.51"/>
<polygon fill="grey" stroke="grey" stroke-width="2" points="726.18,-618.71 734.23,-611.83 723.64,-612.19 726.18,-618.71"/>
</g>
<!-- 30 -->
<g id="node31" class="node">
<title>30</title>
<path fill="none" stroke="#56d8b9" stroke-width="2" d="M946,-612C946,-612 851,-612 851,-612 845,-612 839,-606 839,-600 839,-600 839,-588 839,-588 839,-582 845,-576 851,-576 851,-576 946,-576 946,-576 952,-576 958,-582 958,-588 958,-588 958,-600 958,-600 958,-606 952,-612 946,-612"/>
<text text-anchor="middle" x="898.5" y="-591.5" font-family="sans" font-size="10.00">Diamond_blastp_raw</text>
</g>
<!-- 15&#45;&gt;30 -->
<g id="edge44" class="edge">
<title>15&#45;&gt;30</title>
<path fill="none" stroke="grey" stroke-width="2" d="M663.07,-650.33C707.21,-640.39 766.98,-626.78 828.75,-612.16"/>
<polygon fill="grey" stroke="grey" stroke-width="2" points="829.75,-615.52 838.68,-609.81 828.14,-608.71 829.75,-615.52"/>
</g>
<!-- 16&#45;&gt;10 -->
<g id="edge16" class="edge">
<title>16&#45;&gt;10</title>
<path fill="none" stroke="grey" stroke-width="2" d="M623.38,-287.7C618.14,-279.56 611.8,-269.69 606.02,-260.7"/>
<polygon fill="grey" stroke="grey" stroke-width="2" points="608.85,-258.62 600.5,-252.1 602.96,-262.41 608.85,-258.62"/>
</g>
<!-- 17 -->
<g id="node18" class="node">
<title>17</title>
<path fill="none" stroke="#5692d8" stroke-width="2" d="M526.5,-180C526.5,-180 476.5,-180 476.5,-180 470.5,-180 464.5,-174 464.5,-168 464.5,-168 464.5,-156 464.5,-156 464.5,-150 470.5,-144 476.5,-144 476.5,-144 526.5,-144 526.5,-144 532.5,-144 538.5,-150 538.5,-156 538.5,-156 538.5,-168 538.5,-168 538.5,-174 532.5,-180 526.5,-180"/>
<text text-anchor="middle" x="501.5" y="-159.5" font-family="sans" font-size="10.00">annotations</text>
</g>
<!-- 17&#45;&gt;1 -->
<g id="edge4" class="edge">
<title>17&#45;&gt;1</title>
<path fill="none" stroke="grey" stroke-width="2" d="M523.25,-143.7C534.34,-134.88 547.97,-124.03 559.99,-114.47"/>
<polygon fill="grey" stroke="grey" stroke-width="2" points="562.35,-117.07 568,-108.1 557.99,-111.59 562.35,-117.07"/>
</g>
<!-- 18&#45;&gt;17 -->
<g id="edge23" class="edge">
<title>18&#45;&gt;17</title>
<path fill="none" stroke="grey" stroke-width="2" d="M464.57,-287.87C471.76,-263.56 484.99,-218.82 493.51,-190.01"/>
<polygon fill="grey" stroke="grey" stroke-width="2" points="496.94,-190.77 496.42,-180.19 490.22,-188.79 496.94,-190.77"/>
</g>
<!-- 19 -->
<g id="node20" class="node">
<title>19</title>
<path fill="none" stroke="#5663d8" stroke-width="2" d="M500,-396C500,-396 419,-396 419,-396 413,-396 407,-390 407,-384 407,-384 407,-372 407,-372 407,-366 413,-360 419,-360 419,-360 500,-360 500,-360 506,-360 512,-366 512,-372 512,-372 512,-384 512,-384 512,-390 506,-396 500,-396"/>
<text text-anchor="middle" x="459.5" y="-375.5" font-family="sans" font-size="10.00">genome_visualize</text>
</g>
<!-- 19&#45;&gt;18 -->
<g id="edge24" class="edge">
<title>19&#45;&gt;18</title>
<path fill="none" stroke="grey" stroke-width="2" d="M459.5,-359.7C459.5,-351.98 459.5,-342.71 459.5,-334.11"/>
<polygon fill="grey" stroke="grey" stroke-width="2" points="463,-334.1 459.5,-324.1 456,-334.1 463,-334.1"/>
</g>
<!-- 20&#45;&gt;18 -->
<g id="edge25" class="edge">
<title>20&#45;&gt;18</title>
<path fill="none" stroke="grey" stroke-width="2" d="M391.57,-445.27C331.32,-436.75 207.6,-412.44 248.5,-360 267.69,-335.4 349.99,-320.47 405.95,-312.99"/>
<polygon fill="grey" stroke="grey" stroke-width="2" points="406.61,-316.43 416.08,-311.67 405.71,-309.49 406.61,-316.43"/>
</g>
<!-- 20&#45;&gt;19 -->
<g id="edge30" class="edge">
<title>20&#45;&gt;19</title>
<path fill="none" stroke="grey" stroke-width="2" d="M431.65,-431.7C435.9,-423.64 441.06,-413.89 445.77,-404.98"/>
<polygon fill="grey" stroke="grey" stroke-width="2" points="448.88,-406.58 450.46,-396.1 442.69,-403.31 448.88,-406.58"/>
</g>
<!-- 21&#45;&gt;18 -->
<g id="edge28" class="edge">
<title>21&#45;&gt;18</title>
<path fill="none" stroke="grey" stroke-width="2" d="M336.96,-505.74C287.26,-477.21 193.98,-413.82 236.5,-360 257.21,-333.79 346.7,-319.16 405.82,-312.2"/>
<polygon fill="grey" stroke="grey" stroke-width="2" points="406.58,-315.63 416.12,-311.02 405.79,-308.68 406.58,-315.63"/>
</g>
<!-- 21&#45;&gt;20 -->
<g id="edge33" class="edge">
<title>21&#45;&gt;20</title>
<path fill="none" stroke="grey" stroke-width="2" d="M379.59,-503.7C386.42,-495.3 394.76,-485.07 402.26,-475.86"/>
<polygon fill="grey" stroke="grey" stroke-width="2" points="404.97,-478.07 408.57,-468.1 399.54,-473.65 404.97,-478.07"/>
</g>
<!-- 22 -->
<g id="node23" class="node">
<title>22</title>
<path fill="none" stroke="#56d86b" stroke-width="2" d="M377,-396C377,-396 270,-396 270,-396 264,-396 258,-390 258,-384 258,-384 258,-372 258,-372 258,-366 264,-360 270,-360 270,-360 377,-360 377,-360 383,-360 389,-366 389,-372 389,-372 389,-384 389,-384 389,-390 383,-396 377,-396"/>
<text text-anchor="middle" x="323.5" y="-381" font-family="sans" font-size="10.00">abr</text>
<text text-anchor="middle" x="323.5" y="-370" font-family="sans" font-size="10.00">sample: vB_VpP_AC2_0</text>
</g>
<!-- 22&#45;&gt;18 -->
<g id="edge29" class="edge">
<title>22&#45;&gt;18</title>
<path fill="none" stroke="grey" stroke-width="2" d="M356.77,-359.88C374.96,-350.51 397.69,-338.81 417.14,-328.8"/>
<polygon fill="grey" stroke="grey" stroke-width="2" points="418.81,-331.88 426.1,-324.19 415.61,-325.65 418.81,-331.88"/>
</g>
<!-- 23 -->
<g id="node24" class="node">
<title>23</title>
<path fill="none" stroke="#56b1d8" stroke-width="2" d="M726.5,-180C726.5,-180 670.5,-180 670.5,-180 664.5,-180 658.5,-174 658.5,-168 658.5,-168 658.5,-156 658.5,-156 658.5,-150 664.5,-144 670.5,-144 670.5,-144 726.5,-144 726.5,-144 732.5,-144 738.5,-150 738.5,-156 738.5,-156 738.5,-168 738.5,-168 738.5,-174 732.5,-180 726.5,-180"/>
<text text-anchor="middle" x="698.5" y="-159.5" font-family="sans" font-size="10.00">genome_stat</text>
</g>
<!-- 23&#45;&gt;1 -->
<g id="edge5" class="edge">
<title>23&#45;&gt;1</title>
<path fill="none" stroke="grey" stroke-width="2" d="M671.84,-143.88C657.72,-134.81 640.19,-123.55 624.94,-113.76"/>
<polygon fill="grey" stroke="grey" stroke-width="2" points="626.57,-110.65 616.27,-108.19 622.79,-116.54 626.57,-110.65"/>
</g>
<!-- 24 -->
<g id="node25" class="node">
<title>24</title>
<path fill="none" stroke="#d8c356" stroke-width="2" d="M748.5,-540C748.5,-540 666.5,-540 666.5,-540 660.5,-540 654.5,-534 654.5,-528 654.5,-528 654.5,-516 654.5,-516 654.5,-510 660.5,-504 666.5,-504 666.5,-504 748.5,-504 748.5,-504 754.5,-504 760.5,-510 760.5,-516 760.5,-516 760.5,-528 760.5,-528 760.5,-534 754.5,-540 748.5,-540"/>
<text text-anchor="middle" x="707.5" y="-519.5" font-family="sans" font-size="10.00">statistics_genome</text>
</g>
<!-- 24&#45;&gt;23 -->
<g id="edge35" class="edge">
<title>24&#45;&gt;23</title>
<path fill="none" stroke="grey" stroke-width="2" d="M709.67,-503.98C712.88,-477.37 718.5,-424.25 718.5,-379 718.5,-379 718.5,-379 718.5,-305 718.5,-264.82 710.55,-218.87 704.68,-190.39"/>
<polygon fill="grey" stroke="grey" stroke-width="2" points="708.05,-189.43 702.55,-180.38 701.2,-190.89 708.05,-189.43"/>
</g>
<!-- 25&#45;&gt;24 -->
<g id="edge36" class="edge">
<title>25&#45;&gt;24</title>
<path fill="none" stroke="grey" stroke-width="2" d="M687.17,-575.7C690.21,-567.81 693.88,-558.3 697.26,-549.55"/>
<polygon fill="grey" stroke="grey" stroke-width="2" points="700.57,-550.69 700.9,-540.1 694.04,-548.17 700.57,-550.69"/>
</g>
<!-- 26 -->
<g id="node27" class="node">
<title>26</title>
<path fill="none" stroke="#d88556" stroke-width="2" d="M829,-252C829,-252 766,-252 766,-252 760,-252 754,-246 754,-240 754,-240 754,-228 754,-228 754,-222 760,-216 766,-216 766,-216 829,-216 829,-216 835,-216 841,-222 841,-228 841,-228 841,-240 841,-240 841,-246 835,-252 829,-252"/>
<text text-anchor="middle" x="797.5" y="-231.5" font-family="sans" font-size="10.00">run_vConTACT</text>
</g>
<!-- 26&#45;&gt;1 -->
<g id="edge6" class="edge">
<title>26&#45;&gt;1</title>
<path fill="none" stroke="grey" stroke-width="2" d="M792.1,-215.77C784.97,-195.77 770.58,-163.1 747.5,-144 717.6,-119.26 675.66,-105.9 642.51,-98.78"/>
<polygon fill="grey" stroke="grey" stroke-width="2" points="643.02,-95.31 632.52,-96.76 641.63,-102.17 643.02,-95.31"/>
</g>
<!-- 27 -->
<g id="node28" class="node">
<title>27</title>
<path fill="none" stroke="#d87556" stroke-width="2" d="M830.5,-396C830.5,-396 778.5,-396 778.5,-396 772.5,-396 766.5,-390 766.5,-384 766.5,-384 766.5,-372 766.5,-372 766.5,-366 772.5,-360 778.5,-360 778.5,-360 830.5,-360 830.5,-360 836.5,-360 842.5,-366 842.5,-372 842.5,-372 842.5,-384 842.5,-384 842.5,-390 836.5,-396 830.5,-396"/>
<text text-anchor="middle" x="804.5" y="-375.5" font-family="sans" font-size="10.00">vcontact_all</text>
</g>
<!-- 27&#45;&gt;26 -->
<g id="edge38" class="edge">
<title>27&#45;&gt;26</title>
<path fill="none" stroke="grey" stroke-width="2" d="M803.66,-359.87C802.46,-335.67 800.27,-291.21 798.85,-262.39"/>
<polygon fill="grey" stroke="grey" stroke-width="2" points="802.34,-262 798.35,-252.19 795.34,-262.35 802.34,-262"/>
</g>
<!-- 28 -->
<g id="node29" class="node">
<title>28</title>
<path fill="none" stroke="#8fd856" stroke-width="2" d="M876.5,-540C876.5,-540 828.5,-540 828.5,-540 822.5,-540 816.5,-534 816.5,-528 816.5,-528 816.5,-516 816.5,-516 816.5,-510 822.5,-504 828.5,-504 828.5,-504 876.5,-504 876.5,-504 882.5,-504 888.5,-510 888.5,-516 888.5,-516 888.5,-528 888.5,-528 888.5,-534 882.5,-540 876.5,-540"/>
<text text-anchor="middle" x="852.5" y="-519.5" font-family="sans" font-size="10.00">vConTACT2</text>
</g>
<!-- 28&#45;&gt;27 -->
<g id="edge39" class="edge">
<title>28&#45;&gt;27</title>
<path fill="none" stroke="grey" stroke-width="2" d="M862.47,-503.81C871.82,-485.29 882.79,-455.32 871.5,-432 865.74,-420.1 855.86,-410.06 845.44,-402.02"/>
<polygon fill="grey" stroke="grey" stroke-width="2" points="847.2,-398.98 837.03,-396.02 843.13,-404.68 847.2,-398.98"/>
</g>
<!-- 31 -->
<g id="node32" class="node">
<title>31</title>
<path fill="none" stroke="#d8a456" stroke-width="2" d="M850,-468C850,-468 759,-468 759,-468 753,-468 747,-462 747,-456 747,-456 747,-444 747,-444 747,-438 753,-432 759,-432 759,-432 850,-432 850,-432 856,-432 862,-438 862,-444 862,-444 862,-456 862,-456 862,-462 856,-468 850,-468"/>
<text text-anchor="middle" x="804.5" y="-447.5" font-family="sans" font-size="10.00">vConTACT_visualize</text>
</g>
<!-- 28&#45;&gt;31 -->
<g id="edge45" class="edge">
<title>28&#45;&gt;31</title>
<path fill="none" stroke="grey" stroke-width="2" d="M840.63,-503.7C835,-495.47 828.15,-485.48 821.93,-476.42"/>
<polygon fill="grey" stroke="grey" stroke-width="2" points="824.77,-474.37 816.23,-468.1 819,-478.33 824.77,-474.37"/>
</g>
<!-- 29&#45;&gt;28 -->
<g id="edge41" class="edge">
<title>29&#45;&gt;28</title>
<path fill="none" stroke="grey" stroke-width="2" d="M796.04,-575.7C805.3,-567.05 816.66,-556.45 826.76,-547.03"/>
<polygon fill="grey" stroke="grey" stroke-width="2" points="829.25,-549.49 834.17,-540.1 824.48,-544.37 829.25,-549.49"/>
</g>
<!-- 30&#45;&gt;28 -->
<g id="edge42" class="edge">
<title>30&#45;&gt;28</title>
<path fill="none" stroke="grey" stroke-width="2" d="M887.13,-575.7C881.78,-567.56 875.3,-557.69 869.39,-548.7"/>
<polygon fill="grey" stroke="grey" stroke-width="2" points="872.16,-546.54 863.74,-540.1 866.31,-550.38 872.16,-546.54"/>
</g>
<!-- 31&#45;&gt;27 -->
<g id="edge40" class="edge">
<title>31&#45;&gt;27</title>
<path fill="none" stroke="grey" stroke-width="2" d="M804.5,-431.7C804.5,-423.98 804.5,-414.71 804.5,-406.11"/>
<polygon fill="grey" stroke="grey" stroke-width="2" points="808,-406.1 804.5,-396.1 801,-406.1 808,-406.1"/>
</g>
</g>
</svg>
