<?xml version="1.0" encoding="UTF-8" standalone="no"?>
<!DOCTYPE svg PUBLIC "-//W3C//DTD SVG 1.1//EN"
 "http://www.w3.org/Graphics/SVG/1.1/DTD/svg11.dtd">
<!-- Generated by graphviz version 6.0.1 (20220911.2005)
 -->
<!-- Title: snakemake_dag Pages: 1 -->
<svg width="609pt" height="548pt"
 viewBox="0.00 0.00 608.50 548.00" xmlns="http://www.w3.org/2000/svg" xmlns:xlink="http://www.w3.org/1999/xlink">
<g id="graph0" class="graph" transform="scale(1 1) rotate(0) translate(4 544)">
<title>snakemake_dag</title>
<polygon fill="white" stroke="none" points="-4,4 -4,-544 604.5,-544 604.5,4 -4,4"/>
<!-- 0 -->
<g id="node1" class="node">
<title>0</title>
<path fill="none" stroke="#b6d856" stroke-width="2" d="M358.5,-36C358.5,-36 328.5,-36 328.5,-36 322.5,-36 316.5,-30 316.5,-24 316.5,-24 316.5,-12 316.5,-12 316.5,-6 322.5,0 328.5,0 328.5,0 358.5,0 358.5,0 364.5,0 370.5,-6 370.5,-12 370.5,-12 370.5,-24 370.5,-24 370.5,-30 364.5,-36 358.5,-36"/>
<text text-anchor="middle" x="343.5" y="-15.5" font-family="sans" font-size="10.00">all</text>
</g>
<!-- 1 -->
<g id="node2" class="node">
<title>1</title>
<path fill="none" stroke="#9fd856" stroke-width="2" d="M207.5,-108C207.5,-108 165.5,-108 165.5,-108 159.5,-108 153.5,-102 153.5,-96 153.5,-96 153.5,-84 153.5,-84 153.5,-78 159.5,-72 165.5,-72 165.5,-72 207.5,-72 207.5,-72 213.5,-72 219.5,-78 219.5,-84 219.5,-84 219.5,-96 219.5,-96 219.5,-102 213.5,-108 207.5,-108"/>
<text text-anchor="middle" x="186.5" y="-87.5" font-family="sans" font-size="10.00">nucl_align</text>
</g>
<!-- 1&#45;&gt;0 -->
<g id="edge1" class="edge">
<title>1&#45;&gt;0</title>
<path fill="none" stroke="grey" stroke-width="2" d="M219.8,-74.15C245.37,-62.75 280.65,-47.02 306.99,-35.28"/>
<polygon fill="grey" stroke="grey" stroke-width="2" points="308.55,-38.41 316.26,-31.15 305.7,-32.02 308.55,-38.41"/>
</g>
<!-- 2 -->
<g id="node3" class="node">
<title>2</title>
<path fill="none" stroke="#d86e56" stroke-width="2" d="M154.5,-180C154.5,-180 124.5,-180 124.5,-180 118.5,-180 112.5,-174 112.5,-168 112.5,-168 112.5,-156 112.5,-156 112.5,-150 118.5,-144 124.5,-144 124.5,-144 154.5,-144 154.5,-144 160.5,-144 166.5,-150 166.5,-156 166.5,-156 166.5,-168 166.5,-168 166.5,-174 160.5,-180 154.5,-180"/>
<text text-anchor="middle" x="139.5" y="-159.5" font-family="sans" font-size="10.00">pyANI</text>
</g>
<!-- 2&#45;&gt;1 -->
<g id="edge5" class="edge">
<title>2&#45;&gt;1</title>
<path fill="none" stroke="grey" stroke-width="2" d="M151.12,-143.7C156.64,-135.47 163.35,-125.48 169.43,-116.42"/>
<polygon fill="grey" stroke="grey" stroke-width="2" points="172.35,-118.36 175.02,-108.1 166.54,-114.46 172.35,-118.36"/>
</g>
<!-- 3 -->
<g id="node4" class="node">
<title>3</title>
<path fill="none" stroke="#56d8c9" stroke-width="2" d="M143.5,-324C143.5,-324 51.5,-324 51.5,-324 45.5,-324 39.5,-318 39.5,-312 39.5,-312 39.5,-300 39.5,-300 39.5,-294 45.5,-288 51.5,-288 51.5,-288 143.5,-288 143.5,-288 149.5,-288 155.5,-294 155.5,-300 155.5,-300 155.5,-312 155.5,-312 155.5,-318 149.5,-324 143.5,-324"/>
<text text-anchor="middle" x="97.5" y="-303.5" font-family="sans" font-size="10.00">catch_nucl_neibours</text>
</g>
<!-- 3&#45;&gt;2 -->
<g id="edge6" class="edge">
<title>3&#45;&gt;2</title>
<path fill="none" stroke="grey" stroke-width="2" d="M105.61,-287.62C110.14,-277.4 115.64,-264.15 119.5,-252 125.96,-231.65 131.16,-208.06 134.64,-190.28"/>
<polygon fill="grey" stroke="grey" stroke-width="2" points="138.11,-190.77 136.53,-180.3 131.23,-189.47 138.11,-190.77"/>
</g>
<!-- 5 -->
<g id="node6" class="node">
<title>5</title>
<path fill="none" stroke="#d8b456" stroke-width="2" d="M99,-252C99,-252 12,-252 12,-252 6,-252 0,-246 0,-240 0,-240 0,-228 0,-228 0,-222 6,-216 12,-216 12,-216 99,-216 99,-216 105,-216 111,-222 111,-228 111,-228 111,-240 111,-240 111,-246 105,-252 99,-252"/>
<text text-anchor="middle" x="55.5" y="-231.5" font-family="sans" font-size="10.00">catch_neibours_fna</text>
</g>
<!-- 3&#45;&gt;5 -->
<g id="edge9" class="edge">
<title>3&#45;&gt;5</title>
<path fill="none" stroke="grey" stroke-width="2" d="M87.12,-287.7C82.24,-279.56 76.31,-269.69 70.92,-260.7"/>
<polygon fill="grey" stroke="grey" stroke-width="2" points="73.91,-258.88 65.76,-252.1 67.91,-262.48 73.91,-258.88"/>
</g>
<!-- 4 -->
<g id="node5" class="node">
<title>4</title>
<path fill="none" stroke="#88d856" stroke-width="2" d="M131.5,-396C131.5,-396 63.5,-396 63.5,-396 57.5,-396 51.5,-390 51.5,-384 51.5,-384 51.5,-372 51.5,-372 51.5,-366 57.5,-360 63.5,-360 63.5,-360 131.5,-360 131.5,-360 137.5,-360 143.5,-366 143.5,-372 143.5,-372 143.5,-384 143.5,-384 143.5,-390 137.5,-396 131.5,-396"/>
<text text-anchor="middle" x="97.5" y="-381" font-family="sans" font-size="10.00">MMseqs_blastn</text>
<text text-anchor="middle" x="97.5" y="-370" font-family="sans" font-size="10.00">sample: test_0</text>
</g>
<!-- 4&#45;&gt;3 -->
<g id="edge8" class="edge">
<title>4&#45;&gt;3</title>
<path fill="none" stroke="grey" stroke-width="2" d="M97.5,-359.7C97.5,-351.98 97.5,-342.71 97.5,-334.11"/>
<polygon fill="grey" stroke="grey" stroke-width="2" points="101,-334.1 97.5,-324.1 94,-334.1 101,-334.1"/>
</g>
<!-- 5&#45;&gt;2 -->
<g id="edge7" class="edge">
<title>5&#45;&gt;2</title>
<path fill="none" stroke="grey" stroke-width="2" d="M76.26,-215.7C86.74,-206.97 99.61,-196.24 111,-186.75"/>
<polygon fill="grey" stroke="grey" stroke-width="2" points="113.53,-189.19 118.97,-180.1 109.05,-183.82 113.53,-189.19"/>
</g>
<!-- 6 -->
<g id="node7" class="node">
<title>6</title>
<path fill="none" stroke="#d89c56" stroke-width="2" d="M315,-108C315,-108 278,-108 278,-108 272,-108 266,-102 266,-96 266,-96 266,-84 266,-84 266,-78 272,-72 278,-72 278,-72 315,-72 315,-72 321,-72 327,-78 327,-84 327,-84 327,-96 327,-96 327,-102 321,-108 315,-108"/>
<text text-anchor="middle" x="296.5" y="-87.5" font-family="sans" font-size="10.00">TerL_tree</text>
</g>
<!-- 6&#45;&gt;0 -->
<g id="edge2" class="edge">
<title>6&#45;&gt;0</title>
<path fill="none" stroke="grey" stroke-width="2" d="M308.12,-71.7C313.64,-63.47 320.35,-53.48 326.43,-44.42"/>
<polygon fill="grey" stroke="grey" stroke-width="2" points="329.35,-46.36 332.02,-36.1 323.54,-42.46 329.35,-46.36"/>
</g>
<!-- 7 -->
<g id="node8" class="node">
<title>7</title>
<path fill="none" stroke="#56d89a" stroke-width="2" d="M322.5,-180C322.5,-180 234.5,-180 234.5,-180 228.5,-180 222.5,-174 222.5,-168 222.5,-168 222.5,-156 222.5,-156 222.5,-150 228.5,-144 234.5,-144 234.5,-144 322.5,-144 322.5,-144 328.5,-144 334.5,-150 334.5,-156 334.5,-156 334.5,-168 334.5,-168 334.5,-174 328.5,-180 322.5,-180"/>
<text text-anchor="middle" x="278.5" y="-159.5" font-family="sans" font-size="10.00">phylotree_visualize</text>
</g>
<!-- 7&#45;&gt;6 -->
<g id="edge10" class="edge">
<title>7&#45;&gt;6</title>
<path fill="none" stroke="grey" stroke-width="2" d="M282.95,-143.7C284.95,-135.9 287.37,-126.51 289.6,-117.83"/>
<polygon fill="grey" stroke="grey" stroke-width="2" points="293,-118.66 292.1,-108.1 286.22,-116.92 293,-118.66"/>
</g>
<!-- 8 -->
<g id="node9" class="node">
<title>8</title>
<path fill="none" stroke="#56d882" stroke-width="2" d="M239,-252C239,-252 180,-252 180,-252 174,-252 168,-246 168,-240 168,-240 168,-228 168,-228 168,-222 174,-216 180,-216 180,-216 239,-216 239,-216 245,-216 251,-222 251,-228 251,-228 251,-240 251,-240 251,-246 245,-252 239,-252"/>
<text text-anchor="middle" x="209.5" y="-231.5" font-family="sans" font-size="10.00">MAFFT_iqtree</text>
</g>
<!-- 8&#45;&gt;7 -->
<g id="edge11" class="edge">
<title>8&#45;&gt;7</title>
<path fill="none" stroke="grey" stroke-width="2" d="M226.56,-215.7C235,-207.14 245.32,-196.66 254.54,-187.3"/>
<polygon fill="grey" stroke="grey" stroke-width="2" points="257.11,-189.68 261.64,-180.1 252.13,-184.77 257.11,-189.68"/>
</g>
<!-- 9 -->
<g id="node10" class="node">
<title>9</title>
<path fill="none" stroke="#d88556" stroke-width="2" d="M270,-324C270,-324 235,-324 235,-324 229,-324 223,-318 223,-312 223,-312 223,-300 223,-300 223,-294 229,-288 235,-288 235,-288 270,-288 270,-288 276,-288 282,-294 282,-300 282,-300 282,-312 282,-312 282,-318 276,-324 270,-324"/>
<text text-anchor="middle" x="252.5" y="-303.5" font-family="sans" font-size="10.00">find_terL</text>
</g>
<!-- 9&#45;&gt;8 -->
<g id="edge12" class="edge">
<title>9&#45;&gt;8</title>
<path fill="none" stroke="grey" stroke-width="2" d="M241.87,-287.7C236.87,-279.56 230.81,-269.69 225.29,-260.7"/>
<polygon fill="grey" stroke="grey" stroke-width="2" points="228.22,-258.79 220.01,-252.1 222.26,-262.46 228.22,-258.79"/>
</g>
<!-- 10 -->
<g id="node11" class="node">
<title>10</title>
<path fill="none" stroke="#ced856" stroke-width="2" d="M368.5,-396C368.5,-396 292.5,-396 292.5,-396 286.5,-396 280.5,-390 280.5,-384 280.5,-384 280.5,-372 280.5,-372 280.5,-366 286.5,-360 292.5,-360 292.5,-360 368.5,-360 368.5,-360 374.5,-360 380.5,-366 380.5,-372 380.5,-372 380.5,-384 380.5,-384 380.5,-390 374.5,-396 368.5,-396"/>
<text text-anchor="middle" x="330.5" y="-375.5" font-family="sans" font-size="10.00">filter_All_BLASTp</text>
</g>
<!-- 10&#45;&gt;9 -->
<g id="edge13" class="edge">
<title>10&#45;&gt;9</title>
<path fill="none" stroke="grey" stroke-width="2" d="M311.22,-359.7C301.58,-351.05 289.77,-340.45 279.27,-331.03"/>
<polygon fill="grey" stroke="grey" stroke-width="2" points="281.34,-328.18 271.56,-324.1 276.66,-333.39 281.34,-328.18"/>
</g>
<!-- 15 -->
<g id="node16" class="node">
<title>15</title>
<path fill="none" stroke="#56c9d8" stroke-width="2" d="M447,-324C447,-324 410,-324 410,-324 404,-324 398,-318 398,-312 398,-312 398,-300 398,-300 398,-294 404,-288 410,-288 410,-288 447,-288 447,-288 453,-288 459,-294 459,-300 459,-300 459,-312 459,-312 459,-318 453,-324 447,-324"/>
<text text-anchor="middle" x="428.5" y="-303.5" font-family="sans" font-size="10.00">final_gbk</text>
</g>
<!-- 10&#45;&gt;15 -->
<g id="edge22" class="edge">
<title>10&#45;&gt;15</title>
<path fill="none" stroke="grey" stroke-width="2" d="M354.47,-359.88C367.05,-350.89 382.63,-339.76 396.25,-330.03"/>
<polygon fill="grey" stroke="grey" stroke-width="2" points="398.33,-332.85 404.43,-324.19 394.26,-327.15 398.33,-332.85"/>
</g>
<!-- 11 -->
<g id="node12" class="node">
<title>11</title>
<path fill="none" stroke="#d85656" stroke-width="2" d="M367.5,-468C367.5,-468 295.5,-468 295.5,-468 289.5,-468 283.5,-462 283.5,-456 283.5,-456 283.5,-444 283.5,-444 283.5,-438 289.5,-432 295.5,-432 295.5,-432 367.5,-432 367.5,-432 373.5,-432 379.5,-438 379.5,-444 379.5,-444 379.5,-456 379.5,-456 379.5,-462 373.5,-468 367.5,-468"/>
<text text-anchor="middle" x="331.5" y="-447.5" font-family="sans" font-size="10.00">Diamond_blastp</text>
</g>
<!-- 11&#45;&gt;10 -->
<g id="edge15" class="edge">
<title>11&#45;&gt;10</title>
<path fill="none" stroke="grey" stroke-width="2" d="M331.25,-431.7C331.14,-423.98 331.01,-414.71 330.89,-406.11"/>
<polygon fill="grey" stroke="grey" stroke-width="2" points="334.39,-406.05 330.74,-396.1 327.39,-406.15 334.39,-406.05"/>
</g>
<!-- 12 -->
<g id="node13" class="node">
<title>12</title>
<path fill="none" stroke="#56d86b" stroke-width="2" d="M441,-540C441,-540 376,-540 376,-540 370,-540 364,-534 364,-528 364,-528 364,-516 364,-516 364,-510 370,-504 376,-504 376,-504 441,-504 441,-504 447,-504 453,-510 453,-516 453,-516 453,-528 453,-528 453,-534 447,-540 441,-540"/>
<text text-anchor="middle" x="408.5" y="-525" font-family="sans" font-size="10.00">Prodigal</text>
<text text-anchor="middle" x="408.5" y="-514" font-family="sans" font-size="10.00">sample: test_0</text>
</g>
<!-- 12&#45;&gt;9 -->
<g id="edge14" class="edge">
<title>12&#45;&gt;9</title>
<path fill="none" stroke="grey" stroke-width="2" d="M363.88,-515.12C333.89,-508.73 296.03,-495.46 274.5,-468 244.34,-429.54 244.93,-369.4 248.46,-334.54"/>
<polygon fill="grey" stroke="grey" stroke-width="2" points="251.98,-334.5 249.67,-324.16 245.03,-333.69 251.98,-334.5"/>
</g>
<!-- 12&#45;&gt;11 -->
<g id="edge16" class="edge">
<title>12&#45;&gt;11</title>
<path fill="none" stroke="grey" stroke-width="2" d="M389.47,-503.7C379.96,-495.05 368.29,-484.45 357.93,-475.03"/>
<polygon fill="grey" stroke="grey" stroke-width="2" points="360.07,-472.24 350.31,-468.1 355.36,-477.42 360.07,-472.24"/>
</g>
<!-- 12&#45;&gt;15 -->
<g id="edge21" class="edge">
<title>12&#45;&gt;15</title>
<path fill="none" stroke="grey" stroke-width="2" d="M410.1,-503.85C413.56,-466.83 421.75,-379.18 425.94,-334.39"/>
<polygon fill="grey" stroke="grey" stroke-width="2" points="429.44,-334.51 426.89,-324.23 422.47,-333.86 429.44,-334.51"/>
</g>
<!-- 16 -->
<g id="node17" class="node">
<title>16</title>
<path fill="none" stroke="#56d8b1" stroke-width="2" d="M482,-468C482,-468 449,-468 449,-468 443,-468 437,-462 437,-456 437,-456 437,-444 437,-444 437,-438 443,-432 449,-432 449,-432 482,-432 482,-432 488,-432 494,-438 494,-444 494,-444 494,-456 494,-456 494,-462 488,-468 482,-468"/>
<text text-anchor="middle" x="465.5" y="-447.5" font-family="sans" font-size="10.00">EggNOG</text>
</g>
<!-- 12&#45;&gt;16 -->
<g id="edge24" class="edge">
<title>12&#45;&gt;16</title>
<path fill="none" stroke="grey" stroke-width="2" d="M422.59,-503.7C429.42,-495.3 437.76,-485.07 445.26,-475.86"/>
<polygon fill="grey" stroke="grey" stroke-width="2" points="447.97,-478.07 451.57,-468.1 442.54,-473.65 447.97,-478.07"/>
</g>
<!-- 20 -->
<g id="node21" class="node">
<title>20</title>
<path fill="none" stroke="#d8cb56" stroke-width="2" d="M571,-468C571,-468 524,-468 524,-468 518,-468 512,-462 512,-456 512,-456 512,-444 512,-444 512,-438 518,-432 524,-432 524,-432 571,-432 571,-432 577,-432 583,-438 583,-444 583,-444 583,-456 583,-456 583,-462 577,-468 571,-468"/>
<text text-anchor="middle" x="547.5" y="-447.5" font-family="sans" font-size="10.00">get_orf_list</text>
</g>
<!-- 12&#45;&gt;20 -->
<g id="edge27" class="edge">
<title>12&#45;&gt;20</title>
<path fill="none" stroke="grey" stroke-width="2" d="M442.5,-503.88C461.1,-494.51 484.33,-482.81 504.21,-472.8"/>
<polygon fill="grey" stroke="grey" stroke-width="2" points="506.01,-475.81 513.37,-468.19 502.86,-469.56 506.01,-475.81"/>
</g>
<!-- 13 -->
<g id="node14" class="node">
<title>13</title>
<path fill="none" stroke="#566bd8" stroke-width="2" d="M434.5,-180C434.5,-180 384.5,-180 384.5,-180 378.5,-180 372.5,-174 372.5,-168 372.5,-168 372.5,-156 372.5,-156 372.5,-150 378.5,-144 384.5,-144 384.5,-144 434.5,-144 434.5,-144 440.5,-144 446.5,-150 446.5,-156 446.5,-156 446.5,-168 446.5,-168 446.5,-174 440.5,-180 434.5,-180"/>
<text text-anchor="middle" x="409.5" y="-159.5" font-family="sans" font-size="10.00">annotations</text>
</g>
<!-- 13&#45;&gt;0 -->
<g id="edge3" class="edge">
<title>13&#45;&gt;0</title>
<path fill="none" stroke="grey" stroke-width="2" d="M401.54,-143.87C390.14,-119.35 369.08,-74.03 355.7,-45.26"/>
<polygon fill="grey" stroke="grey" stroke-width="2" points="358.88,-43.78 351.49,-36.19 352.53,-46.73 358.88,-43.78"/>
</g>
<!-- 14 -->
<g id="node15" class="node">
<title>14</title>
<path fill="none" stroke="#5682d8" stroke-width="2" d="M469,-252C469,-252 388,-252 388,-252 382,-252 376,-246 376,-240 376,-240 376,-228 376,-228 376,-222 382,-216 388,-216 388,-216 469,-216 469,-216 475,-216 481,-222 481,-228 481,-228 481,-240 481,-240 481,-246 475,-252 469,-252"/>
<text text-anchor="middle" x="428.5" y="-231.5" font-family="sans" font-size="10.00">genome_visualize</text>
</g>
<!-- 14&#45;&gt;13 -->
<g id="edge17" class="edge">
<title>14&#45;&gt;13</title>
<path fill="none" stroke="grey" stroke-width="2" d="M423.8,-215.7C421.69,-207.9 419.14,-198.51 416.78,-189.83"/>
<polygon fill="grey" stroke="grey" stroke-width="2" points="420.14,-188.84 414.14,-180.1 413.38,-190.67 420.14,-188.84"/>
</g>
<!-- 15&#45;&gt;13 -->
<g id="edge18" class="edge">
<title>15&#45;&gt;13</title>
<path fill="none" stroke="grey" stroke-width="2" d="M457.54,-287.84C469.82,-278.87 482.81,-266.68 489.5,-252 496.14,-237.44 497.07,-230.1 489.5,-216 482,-202.03 469.02,-191.13 455.67,-182.94"/>
<polygon fill="grey" stroke="grey" stroke-width="2" points="457.33,-179.85 446.9,-177.94 453.86,-185.93 457.33,-179.85"/>
</g>
<!-- 15&#45;&gt;14 -->
<g id="edge20" class="edge">
<title>15&#45;&gt;14</title>
<path fill="none" stroke="grey" stroke-width="2" d="M428.5,-287.7C428.5,-279.98 428.5,-270.71 428.5,-262.11"/>
<polygon fill="grey" stroke="grey" stroke-width="2" points="432,-262.1 428.5,-252.1 425,-262.1 432,-262.1"/>
</g>
<!-- 16&#45;&gt;15 -->
<g id="edge23" class="edge">
<title>16&#45;&gt;15</title>
<path fill="none" stroke="grey" stroke-width="2" d="M461.04,-431.87C454.7,-407.56 443.04,-362.82 435.54,-334.01"/>
<polygon fill="grey" stroke="grey" stroke-width="2" points="438.89,-332.98 432.98,-324.19 432.11,-334.75 438.89,-332.98"/>
</g>
<!-- 17 -->
<g id="node18" class="node">
<title>17</title>
<path fill="none" stroke="#59d856" stroke-width="2" d="M346,-252C346,-252 281,-252 281,-252 275,-252 269,-246 269,-240 269,-240 269,-228 269,-228 269,-222 275,-216 281,-216 281,-216 346,-216 346,-216 352,-216 358,-222 358,-228 358,-228 358,-240 358,-240 358,-246 352,-252 346,-252"/>
<text text-anchor="middle" x="313.5" y="-237" font-family="sans" font-size="10.00">abr</text>
<text text-anchor="middle" x="313.5" y="-226" font-family="sans" font-size="10.00">sample: test_0</text>
</g>
<!-- 17&#45;&gt;13 -->
<g id="edge19" class="edge">
<title>17&#45;&gt;13</title>
<path fill="none" stroke="grey" stroke-width="2" d="M337.23,-215.7C349.44,-206.8 364.49,-195.82 377.68,-186.2"/>
<polygon fill="grey" stroke="grey" stroke-width="2" points="380.02,-188.82 386.04,-180.1 375.9,-183.17 380.02,-188.82"/>
</g>
<!-- 18 -->
<g id="node19" class="node">
<title>18</title>
<path fill="none" stroke="#569ad8" stroke-width="2" d="M540.5,-108C540.5,-108 484.5,-108 484.5,-108 478.5,-108 472.5,-102 472.5,-96 472.5,-96 472.5,-84 472.5,-84 472.5,-78 478.5,-72 484.5,-72 484.5,-72 540.5,-72 540.5,-72 546.5,-72 552.5,-78 552.5,-84 552.5,-84 552.5,-96 552.5,-96 552.5,-102 546.5,-108 540.5,-108"/>
<text text-anchor="middle" x="512.5" y="-87.5" font-family="sans" font-size="10.00">genome_stat</text>
</g>
<!-- 18&#45;&gt;0 -->
<g id="edge4" class="edge">
<title>18&#45;&gt;0</title>
<path fill="none" stroke="grey" stroke-width="2" d="M472.45,-72.41C444.46,-60.82 407.37,-45.45 380.15,-34.18"/>
<polygon fill="grey" stroke="grey" stroke-width="2" points="381.19,-30.82 370.61,-30.23 378.51,-37.29 381.19,-30.82"/>
</g>
<!-- 19 -->
<g id="node20" class="node">
<title>19</title>
<path fill="none" stroke="#56b1d8" stroke-width="2" d="M588.5,-396C588.5,-396 506.5,-396 506.5,-396 500.5,-396 494.5,-390 494.5,-384 494.5,-384 494.5,-372 494.5,-372 494.5,-366 500.5,-360 506.5,-360 506.5,-360 588.5,-360 588.5,-360 594.5,-360 600.5,-366 600.5,-372 600.5,-372 600.5,-384 600.5,-384 600.5,-390 594.5,-396 588.5,-396"/>
<text text-anchor="middle" x="547.5" y="-375.5" font-family="sans" font-size="10.00">statistics_genome</text>
</g>
<!-- 19&#45;&gt;18 -->
<g id="edge25" class="edge">
<title>19&#45;&gt;18</title>
<path fill="none" stroke="grey" stroke-width="2" d="M545.42,-359.97C539.57,-312.19 522.98,-176.62 515.84,-118.27"/>
<polygon fill="grey" stroke="grey" stroke-width="2" points="519.31,-117.81 514.62,-108.31 512.36,-118.66 519.31,-117.81"/>
</g>
<!-- 20&#45;&gt;19 -->
<g id="edge26" class="edge">
<title>20&#45;&gt;19</title>
<path fill="none" stroke="grey" stroke-width="2" d="M547.5,-431.7C547.5,-423.98 547.5,-414.71 547.5,-406.11"/>
<polygon fill="grey" stroke="grey" stroke-width="2" points="551,-406.1 547.5,-396.1 544,-406.1 551,-406.1"/>
</g>
</g>
</svg>
