<?xml version="1.0" encoding="UTF-8" standalone="no"?>
<!DOCTYPE svg PUBLIC "-//W3C//DTD SVG 1.1//EN"
 "http://www.w3.org/Graphics/SVG/1.1/DTD/svg11.dtd">
<!-- Generated by graphviz version 6.0.1 (20220911.2005)
 -->
<!-- Title: snakemake_dag Pages: 1 -->
<svg width="641pt" height="548pt"
 viewBox="0.00 0.00 641.00 548.00" xmlns="http://www.w3.org/2000/svg" xmlns:xlink="http://www.w3.org/1999/xlink">
<g id="graph0" class="graph" transform="scale(1 1) rotate(0) translate(4 544)">
<title>snakemake_dag</title>
<polygon fill="white" stroke="none" points="-4,4 -4,-544 637,-544 637,4 -4,4"/>
<!-- 0 -->
<g id="node1" class="node">
<title>0</title>
<path fill="none" stroke="#c6d856" stroke-width="2" d="M360,-36C360,-36 330,-36 330,-36 324,-36 318,-30 318,-24 318,-24 318,-12 318,-12 318,-6 324,0 330,0 330,0 360,0 360,0 366,0 372,-6 372,-12 372,-12 372,-24 372,-24 372,-30 366,-36 360,-36"/>
<text text-anchor="middle" x="345" y="-15.5" font-family="sans" font-size="10.00">all</text>
</g>
<!-- 1 -->
<g id="node2" class="node">
<title>1</title>
<path fill="none" stroke="#56c1d8" stroke-width="2" d="M178,-108C178,-108 136,-108 136,-108 130,-108 124,-102 124,-96 124,-96 124,-84 124,-84 124,-78 130,-72 136,-72 136,-72 178,-72 178,-72 184,-72 190,-78 190,-84 190,-84 190,-96 190,-96 190,-102 184,-108 178,-108"/>
<text text-anchor="middle" x="157" y="-87.5" font-family="sans" font-size="10.00">nucl_align</text>
</g>
<!-- 1&#45;&gt;0 -->
<g id="edge1" class="edge">
<title>1&#45;&gt;0</title>
<path fill="none" stroke="grey" stroke-width="2" d="M190.18,-76.65C223.28,-64.32 274.01,-45.43 308.3,-32.67"/>
<polygon fill="grey" stroke="grey" stroke-width="2" points="309.79,-35.85 317.94,-29.08 307.35,-29.29 309.79,-35.85"/>
</g>
<!-- 2 -->
<g id="node3" class="node">
<title>2</title>
<path fill="none" stroke="#80d856" stroke-width="2" d="M128,-180C128,-180 98,-180 98,-180 92,-180 86,-174 86,-168 86,-168 86,-156 86,-156 86,-150 92,-144 98,-144 98,-144 128,-144 128,-144 134,-144 140,-150 140,-156 140,-156 140,-168 140,-168 140,-174 134,-180 128,-180"/>
<text text-anchor="middle" x="113" y="-159.5" font-family="sans" font-size="10.00">pyANI</text>
</g>
<!-- 2&#45;&gt;1 -->
<g id="edge6" class="edge">
<title>2&#45;&gt;1</title>
<path fill="none" stroke="grey" stroke-width="2" d="M123.88,-143.7C128.99,-135.56 135.2,-125.69 140.84,-116.7"/>
<polygon fill="grey" stroke="grey" stroke-width="2" points="143.89,-118.43 146.25,-108.1 137.96,-114.71 143.89,-118.43"/>
</g>
<!-- 3 -->
<g id="node4" class="node">
<title>3</title>
<path fill="none" stroke="#68d856" stroke-width="2" d="M104,-324C104,-324 12,-324 12,-324 6,-324 0,-318 0,-312 0,-312 0,-300 0,-300 0,-294 6,-288 12,-288 12,-288 104,-288 104,-288 110,-288 116,-294 116,-300 116,-300 116,-312 116,-312 116,-318 110,-324 104,-324"/>
<text text-anchor="middle" x="58" y="-303.5" font-family="sans" font-size="10.00">catch_nucl_neibours</text>
</g>
<!-- 3&#45;&gt;2 -->
<g id="edge7" class="edge">
<title>3&#45;&gt;2</title>
<path fill="none" stroke="grey" stroke-width="2" d="M50.82,-287.7C44.24,-269.08 37.06,-239.03 48,-216 54.33,-202.66 65.85,-191.58 77.44,-183.05"/>
<polygon fill="grey" stroke="grey" stroke-width="2" points="79.56,-185.84 85.83,-177.3 75.6,-180.07 79.56,-185.84"/>
</g>
<!-- 5 -->
<g id="node6" class="node">
<title>5</title>
<path fill="none" stroke="#d88556" stroke-width="2" d="M156.5,-252C156.5,-252 69.5,-252 69.5,-252 63.5,-252 57.5,-246 57.5,-240 57.5,-240 57.5,-228 57.5,-228 57.5,-222 63.5,-216 69.5,-216 69.5,-216 156.5,-216 156.5,-216 162.5,-216 168.5,-222 168.5,-228 168.5,-228 168.5,-240 168.5,-240 168.5,-246 162.5,-252 156.5,-252"/>
<text text-anchor="middle" x="113" y="-231.5" font-family="sans" font-size="10.00">catch_neibours_fna</text>
</g>
<!-- 3&#45;&gt;5 -->
<g id="edge10" class="edge">
<title>3&#45;&gt;5</title>
<path fill="none" stroke="grey" stroke-width="2" d="M71.6,-287.7C78.12,-279.39 86.07,-269.28 93.25,-260.14"/>
<polygon fill="grey" stroke="grey" stroke-width="2" points="96.13,-262.13 99.56,-252.1 90.63,-257.81 96.13,-262.13"/>
</g>
<!-- 4 -->
<g id="node5" class="node">
<title>4</title>
<path fill="none" stroke="#d8ac56" stroke-width="2" d="M92,-396C92,-396 24,-396 24,-396 18,-396 12,-390 12,-384 12,-384 12,-372 12,-372 12,-366 18,-360 24,-360 24,-360 92,-360 92,-360 98,-360 104,-366 104,-372 104,-372 104,-384 104,-384 104,-390 98,-396 92,-396"/>
<text text-anchor="middle" x="58" y="-381" font-family="sans" font-size="10.00">MMseqs_blastn</text>
<text text-anchor="middle" x="58" y="-370" font-family="sans" font-size="10.00">sample: test</text>
</g>
<!-- 4&#45;&gt;3 -->
<g id="edge9" class="edge">
<title>4&#45;&gt;3</title>
<path fill="none" stroke="grey" stroke-width="2" d="M58,-359.7C58,-351.98 58,-342.71 58,-334.11"/>
<polygon fill="grey" stroke="grey" stroke-width="2" points="61.5,-334.1 58,-324.1 54.5,-334.1 61.5,-334.1"/>
</g>
<!-- 5&#45;&gt;2 -->
<g id="edge8" class="edge">
<title>5&#45;&gt;2</title>
<path fill="none" stroke="grey" stroke-width="2" d="M113,-215.7C113,-207.98 113,-198.71 113,-190.11"/>
<polygon fill="grey" stroke="grey" stroke-width="2" points="116.5,-190.1 113,-180.1 109.5,-190.1 116.5,-190.1"/>
</g>
<!-- 6 -->
<g id="node7" class="node">
<title>6</title>
<path fill="none" stroke="#56d8d8" stroke-width="2" d="M273,-108C273,-108 237,-108 237,-108 231,-108 225,-102 225,-96 225,-96 225,-84 225,-84 225,-78 231,-72 237,-72 237,-72 273,-72 273,-72 279,-72 285,-78 285,-84 285,-84 285,-96 285,-96 285,-102 279,-108 273,-108"/>
<text text-anchor="middle" x="255" y="-87.5" font-family="sans" font-size="10.00">terL_tree</text>
</g>
<!-- 6&#45;&gt;0 -->
<g id="edge2" class="edge">
<title>6&#45;&gt;0</title>
<path fill="none" stroke="grey" stroke-width="2" d="M277.25,-71.7C288.58,-62.88 302.53,-52.03 314.82,-42.47"/>
<polygon fill="grey" stroke="grey" stroke-width="2" points="317.26,-45.01 323.01,-36.1 312.97,-39.48 317.26,-45.01"/>
</g>
<!-- 7 -->
<g id="node8" class="node">
<title>7</title>
<path fill="none" stroke="#56d89a" stroke-width="2" d="M272,-180C272,-180 184,-180 184,-180 178,-180 172,-174 172,-168 172,-168 172,-156 172,-156 172,-150 178,-144 184,-144 184,-144 272,-144 272,-144 278,-144 284,-150 284,-156 284,-156 284,-168 284,-168 284,-174 278,-180 272,-180"/>
<text text-anchor="middle" x="228" y="-159.5" font-family="sans" font-size="10.00">phylotree_visualize</text>
</g>
<!-- 7&#45;&gt;6 -->
<g id="edge11" class="edge">
<title>7&#45;&gt;6</title>
<path fill="none" stroke="grey" stroke-width="2" d="M234.67,-143.7C237.71,-135.81 241.38,-126.3 244.76,-117.55"/>
<polygon fill="grey" stroke="grey" stroke-width="2" points="248.07,-118.69 248.4,-108.1 241.54,-116.17 248.07,-118.69"/>
</g>
<!-- 8 -->
<g id="node9" class="node">
<title>8</title>
<path fill="none" stroke="#d85656" stroke-width="2" d="M257.5,-252C257.5,-252 198.5,-252 198.5,-252 192.5,-252 186.5,-246 186.5,-240 186.5,-240 186.5,-228 186.5,-228 186.5,-222 192.5,-216 198.5,-216 198.5,-216 257.5,-216 257.5,-216 263.5,-216 269.5,-222 269.5,-228 269.5,-228 269.5,-240 269.5,-240 269.5,-246 263.5,-252 257.5,-252"/>
<text text-anchor="middle" x="228" y="-231.5" font-family="sans" font-size="10.00">MAFFT_iqtree</text>
</g>
<!-- 8&#45;&gt;7 -->
<g id="edge12" class="edge">
<title>8&#45;&gt;7</title>
<path fill="none" stroke="grey" stroke-width="2" d="M228,-215.7C228,-207.98 228,-198.71 228,-190.11"/>
<polygon fill="grey" stroke="grey" stroke-width="2" points="231.5,-190.1 228,-180.1 224.5,-190.1 231.5,-190.1"/>
</g>
<!-- 9 -->
<g id="node10" class="node">
<title>9</title>
<path fill="none" stroke="#566bd8" stroke-width="2" d="M245.5,-324C245.5,-324 210.5,-324 210.5,-324 204.5,-324 198.5,-318 198.5,-312 198.5,-312 198.5,-300 198.5,-300 198.5,-294 204.5,-288 210.5,-288 210.5,-288 245.5,-288 245.5,-288 251.5,-288 257.5,-294 257.5,-300 257.5,-300 257.5,-312 257.5,-312 257.5,-318 251.5,-324 245.5,-324"/>
<text text-anchor="middle" x="228" y="-303.5" font-family="sans" font-size="10.00">find_terL</text>
</g>
<!-- 9&#45;&gt;8 -->
<g id="edge13" class="edge">
<title>9&#45;&gt;8</title>
<path fill="none" stroke="grey" stroke-width="2" d="M228,-287.7C228,-279.98 228,-270.71 228,-262.11"/>
<polygon fill="grey" stroke="grey" stroke-width="2" points="231.5,-262.1 228,-252.1 224.5,-262.1 231.5,-262.1"/>
</g>
<!-- 10 -->
<g id="node11" class="node">
<title>10</title>
<path fill="none" stroke="#56d8a9" stroke-width="2" d="M276,-396C276,-396 200,-396 200,-396 194,-396 188,-390 188,-384 188,-384 188,-372 188,-372 188,-366 194,-360 200,-360 200,-360 276,-360 276,-360 282,-360 288,-366 288,-372 288,-372 288,-384 288,-384 288,-390 282,-396 276,-396"/>
<text text-anchor="middle" x="238" y="-375.5" font-family="sans" font-size="10.00">filter_All_BLASTp</text>
</g>
<!-- 10&#45;&gt;9 -->
<g id="edge14" class="edge">
<title>10&#45;&gt;9</title>
<path fill="none" stroke="grey" stroke-width="2" d="M235.53,-359.7C234.43,-351.98 233.1,-342.71 231.87,-334.11"/>
<polygon fill="grey" stroke="grey" stroke-width="2" points="235.32,-333.51 230.44,-324.1 228.39,-334.5 235.32,-333.51"/>
</g>
<!-- 15 -->
<g id="node16" class="node">
<title>15</title>
<path fill="none" stroke="#56d8c1" stroke-width="2" d="M358.5,-324C358.5,-324 321.5,-324 321.5,-324 315.5,-324 309.5,-318 309.5,-312 309.5,-312 309.5,-300 309.5,-300 309.5,-294 315.5,-288 321.5,-288 321.5,-288 358.5,-288 358.5,-288 364.5,-288 370.5,-294 370.5,-300 370.5,-300 370.5,-312 370.5,-312 370.5,-318 364.5,-324 358.5,-324"/>
<text text-anchor="middle" x="340" y="-303.5" font-family="sans" font-size="10.00">final_gbk</text>
</g>
<!-- 10&#45;&gt;15 -->
<g id="edge22" class="edge">
<title>10&#45;&gt;15</title>
<path fill="none" stroke="grey" stroke-width="2" d="M262.95,-359.88C276.04,-350.89 292.26,-339.76 306.44,-330.03"/>
<polygon fill="grey" stroke="grey" stroke-width="2" points="308.69,-332.73 314.95,-324.19 304.73,-326.96 308.69,-332.73"/>
</g>
<!-- 11 -->
<g id="node12" class="node">
<title>11</title>
<path fill="none" stroke="#97d856" stroke-width="2" d="M272,-468C272,-468 200,-468 200,-468 194,-468 188,-462 188,-456 188,-456 188,-444 188,-444 188,-438 194,-432 200,-432 200,-432 272,-432 272,-432 278,-432 284,-438 284,-444 284,-444 284,-456 284,-456 284,-462 278,-468 272,-468"/>
<text text-anchor="middle" x="236" y="-447.5" font-family="sans" font-size="10.00">Diamond_blastp</text>
</g>
<!-- 11&#45;&gt;10 -->
<g id="edge16" class="edge">
<title>11&#45;&gt;10</title>
<path fill="none" stroke="grey" stroke-width="2" d="M236.49,-431.7C236.71,-423.98 236.98,-414.71 237.23,-406.11"/>
<polygon fill="grey" stroke="grey" stroke-width="2" points="240.72,-406.2 237.51,-396.1 233.73,-406 240.72,-406.2"/>
</g>
<!-- 19 -->
<g id="node20" class="node">
<title>19</title>
<path fill="none" stroke="#56a9d8" stroke-width="2" d="M483,-396C483,-396 435,-396 435,-396 429,-396 423,-390 423,-384 423,-384 423,-372 423,-372 423,-366 429,-360 435,-360 435,-360 483,-360 483,-360 489,-360 495,-366 495,-372 495,-372 495,-384 495,-384 495,-390 489,-396 483,-396"/>
<text text-anchor="middle" x="459" y="-375.5" font-family="sans" font-size="10.00">vConTACT2</text>
</g>
<!-- 11&#45;&gt;19 -->
<g id="edge29" class="edge">
<title>11&#45;&gt;19</title>
<path fill="none" stroke="grey" stroke-width="2" d="M284.11,-433.9C322.31,-421.91 375.37,-405.25 413.01,-393.44"/>
<polygon fill="grey" stroke="grey" stroke-width="2" points="414.21,-396.73 422.71,-390.39 412.12,-390.05 414.21,-396.73"/>
</g>
<!-- 12 -->
<g id="node13" class="node">
<title>12</title>
<path fill="none" stroke="#59d856" stroke-width="2" d="M414.5,-540C414.5,-540 361.5,-540 361.5,-540 355.5,-540 349.5,-534 349.5,-528 349.5,-528 349.5,-516 349.5,-516 349.5,-510 355.5,-504 361.5,-504 361.5,-504 414.5,-504 414.5,-504 420.5,-504 426.5,-510 426.5,-516 426.5,-516 426.5,-528 426.5,-528 426.5,-534 420.5,-540 414.5,-540"/>
<text text-anchor="middle" x="388" y="-525" font-family="sans" font-size="10.00">Prodigal</text>
<text text-anchor="middle" x="388" y="-514" font-family="sans" font-size="10.00">sample: test</text>
</g>
<!-- 12&#45;&gt;9 -->
<g id="edge15" class="edge">
<title>12&#45;&gt;9</title>
<path fill="none" stroke="grey" stroke-width="2" d="M349.15,-516.79C294.61,-509.99 199.69,-494.59 179,-468 149.52,-430.12 161.5,-404.7 179,-360 183.2,-349.28 190.69,-339.43 198.58,-331.2"/>
<polygon fill="grey" stroke="grey" stroke-width="2" points="201.12,-333.61 205.85,-324.13 196.24,-328.59 201.12,-333.61"/>
</g>
<!-- 12&#45;&gt;11 -->
<g id="edge17" class="edge">
<title>12&#45;&gt;11</title>
<path fill="none" stroke="grey" stroke-width="2" d="M350.82,-503.88C330.13,-494.35 304.2,-482.41 282.22,-472.28"/>
<polygon fill="grey" stroke="grey" stroke-width="2" points="283.61,-469.07 273.06,-468.07 280.68,-475.43 283.61,-469.07"/>
</g>
<!-- 12&#45;&gt;15 -->
<g id="edge21" class="edge">
<title>12&#45;&gt;15</title>
<path fill="none" stroke="grey" stroke-width="2" d="M384.15,-503.85C375.83,-466.75 356.11,-378.81 346.08,-334.1"/>
<polygon fill="grey" stroke="grey" stroke-width="2" points="349.47,-333.22 343.87,-324.23 342.64,-334.76 349.47,-333.22"/>
</g>
<!-- 16 -->
<g id="node17" class="node">
<title>16</title>
<path fill="none" stroke="#afd856" stroke-width="2" d="M347.5,-468C347.5,-468 314.5,-468 314.5,-468 308.5,-468 302.5,-462 302.5,-456 302.5,-456 302.5,-444 302.5,-444 302.5,-438 308.5,-432 314.5,-432 314.5,-432 347.5,-432 347.5,-432 353.5,-432 359.5,-438 359.5,-444 359.5,-444 359.5,-456 359.5,-456 359.5,-462 353.5,-468 347.5,-468"/>
<text text-anchor="middle" x="331" y="-447.5" font-family="sans" font-size="10.00">EggNOG</text>
</g>
<!-- 12&#45;&gt;16 -->
<g id="edge24" class="edge">
<title>12&#45;&gt;16</title>
<path fill="none" stroke="grey" stroke-width="2" d="M373.91,-503.7C367.08,-495.3 358.74,-485.07 351.24,-475.86"/>
<polygon fill="grey" stroke="grey" stroke-width="2" points="353.96,-473.65 344.93,-468.1 348.53,-478.07 353.96,-473.65"/>
</g>
<!-- 12&#45;&gt;19 -->
<g id="edge27" class="edge">
<title>12&#45;&gt;19</title>
<path fill="none" stroke="grey" stroke-width="2" d="M426.57,-515.7C455.21,-509.52 492.4,-496.26 511,-468 519.79,-454.63 517.05,-446.81 511,-432 506.51,-421.02 498.53,-411.08 490.15,-402.86"/>
<polygon fill="grey" stroke="grey" stroke-width="2" points="492.49,-400.26 482.75,-396.09 487.76,-405.42 492.49,-400.26"/>
</g>
<!-- 20 -->
<g id="node21" class="node">
<title>20</title>
<path fill="none" stroke="#569ad8" stroke-width="2" d="M490,-468C490,-468 428,-468 428,-468 422,-468 416,-462 416,-456 416,-456 416,-444 416,-444 416,-438 422,-432 428,-432 428,-432 490,-432 490,-432 496,-432 502,-438 502,-444 502,-444 502,-456 502,-456 502,-462 496,-468 490,-468"/>
<text text-anchor="middle" x="459" y="-447.5" font-family="sans" font-size="10.00">gene2genome</text>
</g>
<!-- 12&#45;&gt;20 -->
<g id="edge30" class="edge">
<title>12&#45;&gt;20</title>
<path fill="none" stroke="grey" stroke-width="2" d="M405.55,-503.7C414.23,-495.14 424.86,-484.66 434.35,-475.3"/>
<polygon fill="grey" stroke="grey" stroke-width="2" points="436.99,-477.62 441.65,-468.1 432.07,-472.63 436.99,-477.62"/>
</g>
<!-- 23 -->
<g id="node24" class="node">
<title>23</title>
<path fill="none" stroke="#5682d8" stroke-width="2" d="M617.5,-468C617.5,-468 570.5,-468 570.5,-468 564.5,-468 558.5,-462 558.5,-456 558.5,-456 558.5,-444 558.5,-444 558.5,-438 564.5,-432 570.5,-432 570.5,-432 617.5,-432 617.5,-432 623.5,-432 629.5,-438 629.5,-444 629.5,-444 629.5,-456 629.5,-456 629.5,-462 623.5,-468 617.5,-468"/>
<text text-anchor="middle" x="594" y="-447.5" font-family="sans" font-size="10.00">get_orf_list</text>
</g>
<!-- 12&#45;&gt;23 -->
<g id="edge33" class="edge">
<title>12&#45;&gt;23</title>
<path fill="none" stroke="grey" stroke-width="2" d="M426.75,-507.83C461.26,-496.1 511.81,-478.93 548.29,-466.53"/>
<polygon fill="grey" stroke="grey" stroke-width="2" points="549.84,-469.7 558.18,-463.17 547.59,-463.07 549.84,-469.7"/>
</g>
<!-- 13 -->
<g id="node14" class="node">
<title>13</title>
<path fill="none" stroke="#d8c356" stroke-width="2" d="M370,-180C370,-180 320,-180 320,-180 314,-180 308,-174 308,-168 308,-168 308,-156 308,-156 308,-150 314,-144 320,-144 320,-144 370,-144 370,-144 376,-144 382,-150 382,-156 382,-156 382,-168 382,-168 382,-174 376,-180 370,-180"/>
<text text-anchor="middle" x="345" y="-159.5" font-family="sans" font-size="10.00">annotations</text>
</g>
<!-- 13&#45;&gt;0 -->
<g id="edge3" class="edge">
<title>13&#45;&gt;0</title>
<path fill="none" stroke="grey" stroke-width="2" d="M345,-143.87C345,-119.67 345,-75.21 345,-46.39"/>
<polygon fill="grey" stroke="grey" stroke-width="2" points="348.5,-46.19 345,-36.19 341.5,-46.19 348.5,-46.19"/>
</g>
<!-- 14 -->
<g id="node15" class="node">
<title>14</title>
<path fill="none" stroke="#d89556" stroke-width="2" d="M380.5,-252C380.5,-252 299.5,-252 299.5,-252 293.5,-252 287.5,-246 287.5,-240 287.5,-240 287.5,-228 287.5,-228 287.5,-222 293.5,-216 299.5,-216 299.5,-216 380.5,-216 380.5,-216 386.5,-216 392.5,-222 392.5,-228 392.5,-228 392.5,-240 392.5,-240 392.5,-246 386.5,-252 380.5,-252"/>
<text text-anchor="middle" x="340" y="-231.5" font-family="sans" font-size="10.00">genome_visualize</text>
</g>
<!-- 14&#45;&gt;13 -->
<g id="edge18" class="edge">
<title>14&#45;&gt;13</title>
<path fill="none" stroke="grey" stroke-width="2" d="M341.24,-215.7C341.79,-207.98 342.45,-198.71 343.06,-190.11"/>
<polygon fill="grey" stroke="grey" stroke-width="2" points="346.56,-190.33 343.78,-180.1 339.57,-189.83 346.56,-190.33"/>
</g>
<!-- 15&#45;&gt;13 -->
<g id="edge19" class="edge">
<title>15&#45;&gt;13</title>
<path fill="none" stroke="grey" stroke-width="2" d="M369.04,-287.84C381.32,-278.87 394.31,-266.68 401,-252 407.64,-237.44 407.33,-230.7 401,-216 396.21,-204.87 387.81,-194.99 378.95,-186.86"/>
<polygon fill="grey" stroke="grey" stroke-width="2" points="381,-184.01 371.12,-180.18 376.46,-189.34 381,-184.01"/>
</g>
<!-- 15&#45;&gt;14 -->
<g id="edge20" class="edge">
<title>15&#45;&gt;14</title>
<path fill="none" stroke="grey" stroke-width="2" d="M340,-287.7C340,-279.98 340,-270.71 340,-262.11"/>
<polygon fill="grey" stroke="grey" stroke-width="2" points="343.5,-262.1 340,-252.1 336.5,-262.1 343.5,-262.1"/>
</g>
<!-- 16&#45;&gt;15 -->
<g id="edge23" class="edge">
<title>16&#45;&gt;15</title>
<path fill="none" stroke="grey" stroke-width="2" d="M332.09,-431.87C333.62,-407.67 336.44,-363.21 338.26,-334.39"/>
<polygon fill="grey" stroke="grey" stroke-width="2" points="341.77,-334.39 338.91,-324.19 334.78,-333.95 341.77,-334.39"/>
</g>
<!-- 17 -->
<g id="node18" class="node">
<title>17</title>
<path fill="none" stroke="#56d86b" stroke-width="2" d="M480.5,-180C480.5,-180 417.5,-180 417.5,-180 411.5,-180 405.5,-174 405.5,-168 405.5,-168 405.5,-156 405.5,-156 405.5,-150 411.5,-144 417.5,-144 417.5,-144 480.5,-144 480.5,-144 486.5,-144 492.5,-150 492.5,-156 492.5,-156 492.5,-168 492.5,-168 492.5,-174 486.5,-180 480.5,-180"/>
<text text-anchor="middle" x="449" y="-159.5" font-family="sans" font-size="10.00">run_vConTACT</text>
</g>
<!-- 17&#45;&gt;0 -->
<g id="edge4" class="edge">
<title>17&#45;&gt;0</title>
<path fill="none" stroke="grey" stroke-width="2" d="M436.46,-143.87C418.34,-119.14 384.73,-73.24 363.68,-44.51"/>
<polygon fill="grey" stroke="grey" stroke-width="2" points="366.32,-42.19 357.59,-36.19 360.67,-46.33 366.32,-42.19"/>
</g>
<!-- 18 -->
<g id="node19" class="node">
<title>18</title>
<path fill="none" stroke="#56d882" stroke-width="2" d="M504.5,-324C504.5,-324 413.5,-324 413.5,-324 407.5,-324 401.5,-318 401.5,-312 401.5,-312 401.5,-300 401.5,-300 401.5,-294 407.5,-288 413.5,-288 413.5,-288 504.5,-288 504.5,-288 510.5,-288 516.5,-294 516.5,-300 516.5,-300 516.5,-312 516.5,-312 516.5,-318 510.5,-324 504.5,-324"/>
<text text-anchor="middle" x="459" y="-303.5" font-family="sans" font-size="10.00">vConTACT_visualize</text>
</g>
<!-- 18&#45;&gt;17 -->
<g id="edge25" class="edge">
<title>18&#45;&gt;17</title>
<path fill="none" stroke="grey" stroke-width="2" d="M457.79,-287.87C456.09,-263.67 452.96,-219.21 450.93,-190.39"/>
<polygon fill="grey" stroke="grey" stroke-width="2" points="454.4,-189.92 450.21,-180.19 447.42,-190.41 454.4,-189.92"/>
</g>
<!-- 19&#45;&gt;18 -->
<g id="edge26" class="edge">
<title>19&#45;&gt;18</title>
<path fill="none" stroke="grey" stroke-width="2" d="M459,-359.7C459,-351.98 459,-342.71 459,-334.11"/>
<polygon fill="grey" stroke="grey" stroke-width="2" points="462.5,-334.1 459,-324.1 455.5,-334.1 462.5,-334.1"/>
</g>
<!-- 20&#45;&gt;19 -->
<g id="edge28" class="edge">
<title>20&#45;&gt;19</title>
<path fill="none" stroke="grey" stroke-width="2" d="M459,-431.7C459,-423.98 459,-414.71 459,-406.11"/>
<polygon fill="grey" stroke="grey" stroke-width="2" points="462.5,-406.1 459,-396.1 455.5,-406.1 462.5,-406.1"/>
</g>
<!-- 21 -->
<g id="node22" class="node">
<title>21</title>
<path fill="none" stroke="#d6d856" stroke-width="2" d="M554,-108C554,-108 498,-108 498,-108 492,-108 486,-102 486,-96 486,-96 486,-84 486,-84 486,-78 492,-72 498,-72 498,-72 554,-72 554,-72 560,-72 566,-78 566,-84 566,-84 566,-96 566,-96 566,-102 560,-108 554,-108"/>
<text text-anchor="middle" x="526" y="-87.5" font-family="sans" font-size="10.00">genome_stat</text>
</g>
<!-- 21&#45;&gt;0 -->
<g id="edge5" class="edge">
<title>21&#45;&gt;0</title>
<path fill="none" stroke="grey" stroke-width="2" d="M485.83,-73.46C454.63,-61.4 411.73,-44.81 381.5,-33.11"/>
<polygon fill="grey" stroke="grey" stroke-width="2" points="382.75,-29.85 372.16,-29.5 380.22,-36.37 382.75,-29.85"/>
</g>
<!-- 22 -->
<g id="node23" class="node">
<title>22</title>
<path fill="none" stroke="#d86e56" stroke-width="2" d="M621,-396C621,-396 539,-396 539,-396 533,-396 527,-390 527,-384 527,-384 527,-372 527,-372 527,-366 533,-360 539,-360 539,-360 621,-360 621,-360 627,-360 633,-366 633,-372 633,-372 633,-384 633,-384 633,-390 627,-396 621,-396"/>
<text text-anchor="middle" x="580" y="-375.5" font-family="sans" font-size="10.00">statistics_genome</text>
</g>
<!-- 22&#45;&gt;21 -->
<g id="edge31" class="edge">
<title>22&#45;&gt;21</title>
<path fill="none" stroke="grey" stroke-width="2" d="M576.78,-359.97C567.76,-312.19 542.17,-176.62 531.15,-118.27"/>
<polygon fill="grey" stroke="grey" stroke-width="2" points="534.56,-117.48 529.27,-108.31 527.68,-118.78 534.56,-117.48"/>
</g>
<!-- 23&#45;&gt;22 -->
<g id="edge32" class="edge">
<title>23&#45;&gt;22</title>
<path fill="none" stroke="grey" stroke-width="2" d="M590.54,-431.7C589,-423.98 587.14,-414.71 585.42,-406.11"/>
<polygon fill="grey" stroke="grey" stroke-width="2" points="588.81,-405.22 583.42,-396.1 581.95,-406.6 588.81,-405.22"/>
</g>
</g>
</svg>
