<?xml version="1.0" encoding="UTF-8" standalone="no"?>
<!DOCTYPE svg PUBLIC "-//W3C//DTD SVG 1.1//EN"
 "http://www.w3.org/Graphics/SVG/1.1/DTD/svg11.dtd">
<!-- Generated by graphviz version 2.43.0 (0)
 -->
<!-- Title: snakemake_dag Pages: 1 -->
<svg width="734pt" height="692pt"
 viewBox="0.00 0.00 733.50 692.00" xmlns="http://www.w3.org/2000/svg" xmlns:xlink="http://www.w3.org/1999/xlink">
<g id="graph0" class="graph" transform="scale(1 1) rotate(0) translate(4 688)">
<title>snakemake_dag</title>
<polygon fill="white" stroke="transparent" points="-4,4 -4,-688 729.5,-688 729.5,4 -4,4"/>
<!-- 0 -->
<g id="node1" class="node">
<title>0</title>
<path fill="none" stroke="#d6d856" stroke-width="2" d="M507.5,-36C507.5,-36 477.5,-36 477.5,-36 471.5,-36 465.5,-30 465.5,-24 465.5,-24 465.5,-12 465.5,-12 465.5,-6 471.5,0 477.5,0 477.5,0 507.5,0 507.5,0 513.5,0 519.5,-6 519.5,-12 519.5,-12 519.5,-24 519.5,-24 519.5,-30 513.5,-36 507.5,-36"/>
<text text-anchor="middle" x="492.5" y="-15.5" font-family="sans" font-size="10.00">all</text>
</g>
<!-- 1 -->
<g id="node2" class="node">
<title>1</title>
<path fill="none" stroke="#56d8d8" stroke-width="2" d="M540.5,-108C540.5,-108 444.5,-108 444.5,-108 438.5,-108 432.5,-102 432.5,-96 432.5,-96 432.5,-84 432.5,-84 432.5,-78 438.5,-72 444.5,-72 444.5,-72 540.5,-72 540.5,-72 546.5,-72 552.5,-78 552.5,-84 552.5,-84 552.5,-96 552.5,-96 552.5,-102 546.5,-108 540.5,-108"/>
<text text-anchor="middle" x="492.5" y="-87.5" font-family="sans" font-size="10.00">no_vc_finished_clean</text>
</g>
<!-- 1&#45;&gt;0 -->
<g id="edge1" class="edge">
<title>1&#45;&gt;0</title>
<path fill="none" stroke="grey" stroke-width="2" d="M492.5,-71.7C492.5,-63.98 492.5,-54.71 492.5,-46.11"/>
<polygon fill="grey" stroke="grey" stroke-width="2" points="496,-46.1 492.5,-36.1 489,-46.1 496,-46.1"/>
</g>
<!-- 2 -->
<g id="node3" class="node">
<title>2</title>
<path fill="none" stroke="#56d8b1" stroke-width="2" d="M350.5,-180C350.5,-180 308.5,-180 308.5,-180 302.5,-180 296.5,-174 296.5,-168 296.5,-168 296.5,-156 296.5,-156 296.5,-150 302.5,-144 308.5,-144 308.5,-144 350.5,-144 350.5,-144 356.5,-144 362.5,-150 362.5,-156 362.5,-156 362.5,-168 362.5,-168 362.5,-174 356.5,-180 350.5,-180"/>
<text text-anchor="middle" x="329.5" y="-159.5" font-family="sans" font-size="10.00">nucl_align</text>
</g>
<!-- 2&#45;&gt;1 -->
<g id="edge2" class="edge">
<title>2&#45;&gt;1</title>
<path fill="none" stroke="grey" stroke-width="2" d="M362.88,-146.67C386.11,-136.69 417.46,-123.23 443.51,-112.04"/>
<polygon fill="grey" stroke="grey" stroke-width="2" points="445.03,-115.19 452.84,-108.03 442.27,-108.76 445.03,-115.19"/>
</g>
<!-- 3 -->
<g id="node4" class="node">
<title>3</title>
<path fill="none" stroke="#b6d856" stroke-width="2" d="M285,-252C285,-252 226,-252 226,-252 220,-252 214,-246 214,-240 214,-240 214,-228 214,-228 214,-222 220,-216 226,-216 226,-216 285,-216 285,-216 291,-216 297,-222 297,-228 297,-228 297,-240 297,-240 297,-246 291,-252 285,-252"/>
<text text-anchor="middle" x="255.5" y="-231.5" font-family="sans" font-size="10.00">nucl_align_all</text>
</g>
<!-- 3&#45;&gt;2 -->
<g id="edge6" class="edge">
<title>3&#45;&gt;2</title>
<path fill="none" stroke="grey" stroke-width="2" d="M273.79,-215.7C282.93,-207.05 294.14,-196.45 304.1,-187.03"/>
<polygon fill="grey" stroke="grey" stroke-width="2" points="306.56,-189.52 311.42,-180.1 301.75,-184.43 306.56,-189.52"/>
</g>
<!-- 4 -->
<g id="node5" class="node">
<title>4</title>
<path fill="none" stroke="#c6d856" stroke-width="2" d="M225.5,-324C225.5,-324 195.5,-324 195.5,-324 189.5,-324 183.5,-318 183.5,-312 183.5,-312 183.5,-300 183.5,-300 183.5,-294 189.5,-288 195.5,-288 195.5,-288 225.5,-288 225.5,-288 231.5,-288 237.5,-294 237.5,-300 237.5,-300 237.5,-312 237.5,-312 237.5,-318 231.5,-324 225.5,-324"/>
<text text-anchor="middle" x="210.5" y="-303.5" font-family="sans" font-size="10.00">VIRIDIC</text>
</g>
<!-- 4&#45;&gt;3 -->
<g id="edge7" class="edge">
<title>4&#45;&gt;3</title>
<path fill="none" stroke="grey" stroke-width="2" d="M221.62,-287.7C226.86,-279.56 233.2,-269.69 238.98,-260.7"/>
<polygon fill="grey" stroke="grey" stroke-width="2" points="242.04,-262.41 244.5,-252.1 236.15,-258.62 242.04,-262.41"/>
</g>
<!-- 5 -->
<g id="node6" class="node">
<title>5</title>
<path fill="none" stroke="#68d856" stroke-width="2" d="M148.5,-396C148.5,-396 76.5,-396 76.5,-396 70.5,-396 64.5,-390 64.5,-384 64.5,-384 64.5,-372 64.5,-372 64.5,-366 70.5,-360 76.5,-360 76.5,-360 148.5,-360 148.5,-360 154.5,-360 160.5,-366 160.5,-372 160.5,-372 160.5,-384 160.5,-384 160.5,-390 154.5,-396 148.5,-396"/>
<text text-anchor="middle" x="112.5" y="-375.5" font-family="sans" font-size="10.00">VIRIDIC_prepare</text>
</g>
<!-- 5&#45;&gt;4 -->
<g id="edge8" class="edge">
<title>5&#45;&gt;4</title>
<path fill="none" stroke="grey" stroke-width="2" d="M136.47,-359.88C149.05,-350.89 164.63,-339.76 178.25,-330.03"/>
<polygon fill="grey" stroke="grey" stroke-width="2" points="180.33,-332.85 186.43,-324.19 176.26,-327.15 180.33,-332.85"/>
</g>
<!-- 6 -->
<g id="node7" class="node">
<title>6</title>
<path fill="none" stroke="#56a2d8" stroke-width="2" d="M111.5,-540C111.5,-540 19.5,-540 19.5,-540 13.5,-540 7.5,-534 7.5,-528 7.5,-528 7.5,-516 7.5,-516 7.5,-510 13.5,-504 19.5,-504 19.5,-504 111.5,-504 111.5,-504 117.5,-504 123.5,-510 123.5,-516 123.5,-516 123.5,-528 123.5,-528 123.5,-534 117.5,-540 111.5,-540"/>
<text text-anchor="middle" x="65.5" y="-519.5" font-family="sans" font-size="10.00">catch_nucl_neibours</text>
</g>
<!-- 6&#45;&gt;5 -->
<g id="edge9" class="edge">
<title>6&#45;&gt;5</title>
<path fill="none" stroke="grey" stroke-width="2" d="M55.9,-503.83C46.92,-485.31 36.41,-455.35 47.5,-432 53.07,-420.27 62.64,-410.28 72.76,-402.25"/>
<polygon fill="grey" stroke="grey" stroke-width="2" points="74.95,-404.98 80.92,-396.22 70.8,-399.35 74.95,-404.98"/>
</g>
<!-- 8 -->
<g id="node9" class="node">
<title>8</title>
<path fill="none" stroke="#56d87b" stroke-width="2" d="M156,-468C156,-468 69,-468 69,-468 63,-468 57,-462 57,-456 57,-456 57,-444 57,-444 57,-438 63,-432 69,-432 69,-432 156,-432 156,-432 162,-432 168,-438 168,-444 168,-444 168,-456 168,-456 168,-462 162,-468 156,-468"/>
<text text-anchor="middle" x="112.5" y="-447.5" font-family="sans" font-size="10.00">catch_neibours_fna</text>
</g>
<!-- 6&#45;&gt;8 -->
<g id="edge12" class="edge">
<title>6&#45;&gt;8</title>
<path fill="none" stroke="grey" stroke-width="2" d="M77.12,-503.7C82.64,-495.47 89.35,-485.48 95.43,-476.42"/>
<polygon fill="grey" stroke="grey" stroke-width="2" points="98.35,-478.36 101.02,-468.1 92.54,-474.46 98.35,-478.36"/>
</g>
<!-- 7 -->
<g id="node8" class="node">
<title>7</title>
<path fill="none" stroke="#8fd856" stroke-width="2" d="M119,-612C119,-612 12,-612 12,-612 6,-612 0,-606 0,-600 0,-600 0,-588 0,-588 0,-582 6,-576 12,-576 12,-576 119,-576 119,-576 125,-576 131,-582 131,-588 131,-588 131,-600 131,-600 131,-606 125,-612 119,-612"/>
<text text-anchor="middle" x="65.5" y="-597" font-family="sans" font-size="10.00">MMseqs_blastn</text>
<text text-anchor="middle" x="65.5" y="-586" font-family="sans" font-size="10.00">sample: vB_VpP_AC2_0</text>
</g>
<!-- 7&#45;&gt;6 -->
<g id="edge11" class="edge">
<title>7&#45;&gt;6</title>
<path fill="none" stroke="grey" stroke-width="2" d="M65.5,-575.7C65.5,-567.98 65.5,-558.71 65.5,-550.11"/>
<polygon fill="grey" stroke="grey" stroke-width="2" points="69,-550.1 65.5,-540.1 62,-550.1 69,-550.1"/>
</g>
<!-- 8&#45;&gt;5 -->
<g id="edge10" class="edge">
<title>8&#45;&gt;5</title>
<path fill="none" stroke="grey" stroke-width="2" d="M112.5,-431.7C112.5,-423.98 112.5,-414.71 112.5,-406.11"/>
<polygon fill="grey" stroke="grey" stroke-width="2" points="116,-406.1 112.5,-396.1 109,-406.1 116,-406.1"/>
</g>
<!-- 9 -->
<g id="node10" class="node">
<title>9</title>
<path fill="none" stroke="#56d8c9" stroke-width="2" d="M557,-180C557,-180 520,-180 520,-180 514,-180 508,-174 508,-168 508,-168 508,-156 508,-156 508,-150 514,-144 520,-144 520,-144 557,-144 557,-144 563,-144 569,-150 569,-156 569,-156 569,-168 569,-168 569,-174 563,-180 557,-180"/>
<text text-anchor="middle" x="538.5" y="-159.5" font-family="sans" font-size="10.00">TerL_tree</text>
</g>
<!-- 9&#45;&gt;1 -->
<g id="edge3" class="edge">
<title>9&#45;&gt;1</title>
<path fill="none" stroke="grey" stroke-width="2" d="M527.13,-143.7C521.78,-135.56 515.3,-125.69 509.39,-116.7"/>
<polygon fill="grey" stroke="grey" stroke-width="2" points="512.16,-114.54 503.74,-108.1 506.31,-118.38 512.16,-114.54"/>
</g>
<!-- 10 -->
<g id="node11" class="node">
<title>10</title>
<path fill="none" stroke="#9fd856" stroke-width="2" d="M577.5,-252C577.5,-252 533.5,-252 533.5,-252 527.5,-252 521.5,-246 521.5,-240 521.5,-240 521.5,-228 521.5,-228 521.5,-222 527.5,-216 533.5,-216 533.5,-216 577.5,-216 577.5,-216 583.5,-216 589.5,-222 589.5,-228 589.5,-228 589.5,-240 589.5,-240 589.5,-246 583.5,-252 577.5,-252"/>
<text text-anchor="middle" x="555.5" y="-231.5" font-family="sans" font-size="10.00">TerL_clean</text>
</g>
<!-- 10&#45;&gt;9 -->
<g id="edge13" class="edge">
<title>10&#45;&gt;9</title>
<path fill="none" stroke="grey" stroke-width="2" d="M551.3,-215.7C549.4,-207.9 547.12,-198.51 545.02,-189.83"/>
<polygon fill="grey" stroke="grey" stroke-width="2" points="548.42,-189 542.65,-180.1 541.61,-190.65 548.42,-189"/>
</g>
<!-- 11 -->
<g id="node12" class="node">
<title>11</title>
<path fill="none" stroke="#56d88a" stroke-width="2" d="M683,-396C683,-396 624,-396 624,-396 618,-396 612,-390 612,-384 612,-384 612,-372 612,-372 612,-366 618,-360 624,-360 624,-360 683,-360 683,-360 689,-360 695,-366 695,-372 695,-372 695,-384 695,-384 695,-390 689,-396 683,-396"/>
<text text-anchor="middle" x="653.5" y="-375.5" font-family="sans" font-size="10.00">MAFFT_iqtree</text>
</g>
<!-- 11&#45;&gt;10 -->
<g id="edge14" class="edge">
<title>11&#45;&gt;10</title>
<path fill="none" stroke="grey" stroke-width="2" d="M616.07,-359.86C600.99,-351.16 584.78,-339.18 574.5,-324 562.15,-305.76 557.62,-280.99 556.05,-262.21"/>
<polygon fill="grey" stroke="grey" stroke-width="2" points="559.54,-261.98 555.44,-252.21 552.55,-262.41 559.54,-261.98"/>
</g>
<!-- 16 -->
<g id="node17" class="node">
<title>16</title>
<path fill="none" stroke="#566bd8" stroke-width="2" d="M683.5,-324C683.5,-324 595.5,-324 595.5,-324 589.5,-324 583.5,-318 583.5,-312 583.5,-312 583.5,-300 583.5,-300 583.5,-294 589.5,-288 595.5,-288 595.5,-288 683.5,-288 683.5,-288 689.5,-288 695.5,-294 695.5,-300 695.5,-300 695.5,-312 695.5,-312 695.5,-318 689.5,-324 683.5,-324"/>
<text text-anchor="middle" x="639.5" y="-303.5" font-family="sans" font-size="10.00">phylotree_visualize</text>
</g>
<!-- 11&#45;&gt;16 -->
<g id="edge21" class="edge">
<title>11&#45;&gt;16</title>
<path fill="none" stroke="grey" stroke-width="2" d="M650.04,-359.7C648.5,-351.98 646.64,-342.71 644.92,-334.11"/>
<polygon fill="grey" stroke="grey" stroke-width="2" points="648.31,-333.22 642.92,-324.1 641.45,-334.6 648.31,-333.22"/>
</g>
<!-- 12 -->
<g id="node13" class="node">
<title>12</title>
<path fill="none" stroke="#d88d56" stroke-width="2" d="M559,-468C559,-468 524,-468 524,-468 518,-468 512,-462 512,-456 512,-456 512,-444 512,-444 512,-438 518,-432 524,-432 524,-432 559,-432 559,-432 565,-432 571,-438 571,-444 571,-444 571,-456 571,-456 571,-462 565,-468 559,-468"/>
<text text-anchor="middle" x="541.5" y="-447.5" font-family="sans" font-size="10.00">find_terL</text>
</g>
<!-- 12&#45;&gt;11 -->
<g id="edge16" class="edge">
<title>12&#45;&gt;11</title>
<path fill="none" stroke="grey" stroke-width="2" d="M568.9,-431.88C583.41,-422.81 601.42,-411.55 617.09,-401.76"/>
<polygon fill="grey" stroke="grey" stroke-width="2" points="619.37,-404.46 626,-396.19 615.66,-398.52 619.37,-404.46"/>
</g>
<!-- 13 -->
<g id="node14" class="node">
<title>13</title>
<path fill="none" stroke="#d8c356" stroke-width="2" d="M501.5,-540C501.5,-540 425.5,-540 425.5,-540 419.5,-540 413.5,-534 413.5,-528 413.5,-528 413.5,-516 413.5,-516 413.5,-510 419.5,-504 425.5,-504 425.5,-504 501.5,-504 501.5,-504 507.5,-504 513.5,-510 513.5,-516 513.5,-516 513.5,-528 513.5,-528 513.5,-534 507.5,-540 501.5,-540"/>
<text text-anchor="middle" x="463.5" y="-519.5" font-family="sans" font-size="10.00">filter_All_BLASTp</text>
</g>
<!-- 13&#45;&gt;12 -->
<g id="edge17" class="edge">
<title>13&#45;&gt;12</title>
<path fill="none" stroke="grey" stroke-width="2" d="M482.78,-503.7C492.42,-495.05 504.23,-484.45 514.73,-475.03"/>
<polygon fill="grey" stroke="grey" stroke-width="2" points="517.34,-477.39 522.44,-468.1 512.66,-472.18 517.34,-477.39"/>
</g>
<!-- 18 -->
<g id="node19" class="node">
<title>18</title>
<path fill="none" stroke="#d85656" stroke-width="2" d="M427.5,-324C427.5,-324 365.5,-324 365.5,-324 359.5,-324 353.5,-318 353.5,-312 353.5,-312 353.5,-300 353.5,-300 353.5,-294 359.5,-288 365.5,-288 365.5,-288 427.5,-288 427.5,-288 433.5,-288 439.5,-294 439.5,-300 439.5,-300 439.5,-312 439.5,-312 439.5,-318 433.5,-324 427.5,-324"/>
<text text-anchor="middle" x="396.5" y="-303.5" font-family="sans" font-size="10.00">annotation_all</text>
</g>
<!-- 13&#45;&gt;18 -->
<g id="edge26" class="edge">
<title>13&#45;&gt;18</title>
<path fill="none" stroke="grey" stroke-width="2" d="M458.13,-503.85C446.49,-466.68 418.87,-378.44 404.9,-333.82"/>
<polygon fill="grey" stroke="grey" stroke-width="2" points="408.22,-332.73 401.9,-324.23 401.54,-334.82 408.22,-332.73"/>
</g>
<!-- 20 -->
<g id="node21" class="node">
<title>20</title>
<path fill="none" stroke="#d8a456" stroke-width="2" d="M356,-468C356,-468 319,-468 319,-468 313,-468 307,-462 307,-456 307,-456 307,-444 307,-444 307,-438 313,-432 319,-432 319,-432 356,-432 356,-432 362,-432 368,-438 368,-444 368,-444 368,-456 368,-456 368,-462 362,-468 356,-468"/>
<text text-anchor="middle" x="337.5" y="-447.5" font-family="sans" font-size="10.00">final_gbk</text>
</g>
<!-- 13&#45;&gt;20 -->
<g id="edge31" class="edge">
<title>13&#45;&gt;20</title>
<path fill="none" stroke="grey" stroke-width="2" d="M432.68,-503.88C415.93,-494.57 395.03,-482.96 377.08,-472.99"/>
<polygon fill="grey" stroke="grey" stroke-width="2" points="378.45,-469.74 368,-467.95 375.05,-475.86 378.45,-469.74"/>
</g>
<!-- 14 -->
<g id="node15" class="node">
<title>14</title>
<path fill="none" stroke="#56c9d8" stroke-width="2" d="M489.5,-612C489.5,-612 417.5,-612 417.5,-612 411.5,-612 405.5,-606 405.5,-600 405.5,-600 405.5,-588 405.5,-588 405.5,-582 411.5,-576 417.5,-576 417.5,-576 489.5,-576 489.5,-576 495.5,-576 501.5,-582 501.5,-588 501.5,-588 501.5,-600 501.5,-600 501.5,-606 495.5,-612 489.5,-612"/>
<text text-anchor="middle" x="453.5" y="-591.5" font-family="sans" font-size="10.00">Diamond_blastp</text>
</g>
<!-- 14&#45;&gt;13 -->
<g id="edge19" class="edge">
<title>14&#45;&gt;13</title>
<path fill="none" stroke="grey" stroke-width="2" d="M455.97,-575.7C457.07,-567.98 458.4,-558.71 459.63,-550.11"/>
<polygon fill="grey" stroke="grey" stroke-width="2" points="463.11,-550.5 461.06,-540.1 456.18,-549.51 463.11,-550.5"/>
</g>
<!-- 15 -->
<g id="node16" class="node">
<title>15</title>
<path fill="none" stroke="#567bd8" stroke-width="2" d="M468,-684C468,-684 361,-684 361,-684 355,-684 349,-678 349,-672 349,-672 349,-660 349,-660 349,-654 355,-648 361,-648 361,-648 468,-648 468,-648 474,-648 480,-654 480,-660 480,-660 480,-672 480,-672 480,-678 474,-684 468,-684"/>
<text text-anchor="middle" x="414.5" y="-669" font-family="sans" font-size="10.00">Prodigal</text>
<text text-anchor="middle" x="414.5" y="-658" font-family="sans" font-size="10.00">sample: vB_VpP_AC2_0</text>
</g>
<!-- 15&#45;&gt;12 -->
<g id="edge18" class="edge">
<title>15&#45;&gt;12</title>
<path fill="none" stroke="grey" stroke-width="2" d="M464.03,-647.84C481.18,-639.54 498.97,-627.86 510.5,-612 539.41,-572.21 543.42,-512.78 542.97,-478.35"/>
<polygon fill="grey" stroke="grey" stroke-width="2" points="546.46,-478.01 542.69,-468.11 539.46,-478.2 546.46,-478.01"/>
</g>
<!-- 15&#45;&gt;14 -->
<g id="edge20" class="edge">
<title>15&#45;&gt;14</title>
<path fill="none" stroke="grey" stroke-width="2" d="M424.14,-647.7C428.63,-639.64 434.06,-629.89 439.02,-620.98"/>
<polygon fill="grey" stroke="grey" stroke-width="2" points="442.16,-622.54 443.97,-612.1 436.05,-619.14 442.16,-622.54"/>
</g>
<!-- 15&#45;&gt;18 -->
<g id="edge25" class="edge">
<title>15&#45;&gt;18</title>
<path fill="none" stroke="grey" stroke-width="2" d="M348.8,-651.46C284.61,-633.95 196.5,-596.51 196.5,-523 196.5,-523 196.5,-523 196.5,-449 196.5,-408.55 187.99,-389.65 215.5,-360 248.15,-324.82 302.75,-312.55 343.46,-308.49"/>
<polygon fill="grey" stroke="grey" stroke-width="2" points="343.83,-311.97 353.49,-307.63 343.22,-305 343.83,-311.97"/>
</g>
<!-- 15&#45;&gt;20 -->
<g id="edge30" class="edge">
<title>15&#45;&gt;20</title>
<path fill="none" stroke="grey" stroke-width="2" d="M397.7,-647.79C376.98,-625.22 342.86,-583.39 329.5,-540 323.28,-519.8 325.95,-495.89 329.81,-477.94"/>
<polygon fill="grey" stroke="grey" stroke-width="2" points="333.23,-478.67 332.15,-468.13 326.42,-477.04 333.23,-478.67"/>
</g>
<!-- 21 -->
<g id="node22" class="node">
<title>21</title>
<path fill="none" stroke="#59d856" stroke-width="2" d="M383,-540C383,-540 350,-540 350,-540 344,-540 338,-534 338,-528 338,-528 338,-516 338,-516 338,-510 344,-504 350,-504 350,-504 383,-504 383,-504 389,-504 395,-510 395,-516 395,-516 395,-528 395,-528 395,-534 389,-540 383,-540"/>
<text text-anchor="middle" x="366.5" y="-519.5" font-family="sans" font-size="10.00">EggNOG</text>
</g>
<!-- 15&#45;&gt;21 -->
<g id="edge33" class="edge">
<title>15&#45;&gt;21</title>
<path fill="none" stroke="grey" stroke-width="2" d="M408.65,-647.82C405.13,-637.45 400.55,-623.97 396.5,-612 389.42,-591.08 381.44,-567.39 375.49,-549.71"/>
<polygon fill="grey" stroke="grey" stroke-width="2" points="378.75,-548.43 372.24,-540.07 372.11,-550.66 378.75,-548.43"/>
</g>
<!-- 25 -->
<g id="node26" class="node">
<title>25</title>
<path fill="none" stroke="#d87d56" stroke-width="2" d="M637,-612C637,-612 590,-612 590,-612 584,-612 578,-606 578,-600 578,-600 578,-588 578,-588 578,-582 584,-576 590,-576 590,-576 637,-576 637,-576 643,-576 649,-582 649,-588 649,-588 649,-600 649,-600 649,-606 643,-612 637,-612"/>
<text text-anchor="middle" x="613.5" y="-591.5" font-family="sans" font-size="10.00">get_orf_list</text>
</g>
<!-- 15&#45;&gt;25 -->
<g id="edge36" class="edge">
<title>15&#45;&gt;25</title>
<path fill="none" stroke="grey" stroke-width="2" d="M462.93,-647.97C494.9,-636.72 536.53,-622.08 567.91,-611.04"/>
<polygon fill="grey" stroke="grey" stroke-width="2" points="569.44,-614.21 577.71,-607.59 567.12,-607.61 569.44,-614.21"/>
</g>
<!-- 16&#45;&gt;10 -->
<g id="edge15" class="edge">
<title>16&#45;&gt;10</title>
<path fill="none" stroke="grey" stroke-width="2" d="M618.74,-287.7C608.26,-278.97 595.39,-268.24 584,-258.75"/>
<polygon fill="grey" stroke="grey" stroke-width="2" points="585.95,-255.82 576.03,-252.1 581.47,-261.19 585.95,-255.82"/>
</g>
<!-- 17 -->
<g id="node18" class="node">
<title>17</title>
<path fill="none" stroke="#d8b456" stroke-width="2" d="M456.5,-252C456.5,-252 406.5,-252 406.5,-252 400.5,-252 394.5,-246 394.5,-240 394.5,-240 394.5,-228 394.5,-228 394.5,-222 400.5,-216 406.5,-216 406.5,-216 456.5,-216 456.5,-216 462.5,-216 468.5,-222 468.5,-228 468.5,-228 468.5,-240 468.5,-240 468.5,-246 462.5,-252 456.5,-252"/>
<text text-anchor="middle" x="431.5" y="-231.5" font-family="sans" font-size="10.00">annotations</text>
</g>
<!-- 17&#45;&gt;1 -->
<g id="edge4" class="edge">
<title>17&#45;&gt;1</title>
<path fill="none" stroke="grey" stroke-width="2" d="M438.86,-215.87C449.35,-191.46 468.69,-146.43 481.06,-117.64"/>
<polygon fill="grey" stroke="grey" stroke-width="2" points="484.38,-118.76 485.12,-108.19 477.95,-116 484.38,-118.76"/>
</g>
<!-- 18&#45;&gt;17 -->
<g id="edge22" class="edge">
<title>18&#45;&gt;17</title>
<path fill="none" stroke="grey" stroke-width="2" d="M405.15,-287.7C409.14,-279.73 413.95,-270.1 418.37,-261.26"/>
<polygon fill="grey" stroke="grey" stroke-width="2" points="421.61,-262.61 422.95,-252.1 415.35,-259.48 421.61,-262.61"/>
</g>
<!-- 19 -->
<g id="node20" class="node">
<title>19</title>
<path fill="none" stroke="#56b1d8" stroke-width="2" d="M318,-396C318,-396 237,-396 237,-396 231,-396 225,-390 225,-384 225,-384 225,-372 225,-372 225,-366 231,-360 237,-360 237,-360 318,-360 318,-360 324,-360 330,-366 330,-372 330,-372 330,-384 330,-384 330,-390 324,-396 318,-396"/>
<text text-anchor="middle" x="277.5" y="-375.5" font-family="sans" font-size="10.00">genome_visualize</text>
</g>
<!-- 19&#45;&gt;18 -->
<g id="edge23" class="edge">
<title>19&#45;&gt;18</title>
<path fill="none" stroke="grey" stroke-width="2" d="M306.61,-359.88C322.17,-350.72 341.52,-339.34 358.28,-329.48"/>
<polygon fill="grey" stroke="grey" stroke-width="2" points="360.43,-332.28 367.28,-324.19 356.88,-326.24 360.43,-332.28"/>
</g>
<!-- 20&#45;&gt;18 -->
<g id="edge24" class="edge">
<title>20&#45;&gt;18</title>
<path fill="none" stroke="grey" stroke-width="2" d="M344.62,-431.87C354.76,-407.46 373.47,-362.43 385.43,-333.64"/>
<polygon fill="grey" stroke="grey" stroke-width="2" points="388.75,-334.77 389.36,-324.19 382.29,-332.08 388.75,-334.77"/>
</g>
<!-- 20&#45;&gt;19 -->
<g id="edge29" class="edge">
<title>20&#45;&gt;19</title>
<path fill="none" stroke="grey" stroke-width="2" d="M322.67,-431.7C315.48,-423.3 306.7,-413.07 298.81,-403.86"/>
<polygon fill="grey" stroke="grey" stroke-width="2" points="301.33,-401.42 292.16,-396.1 296.01,-405.97 301.33,-401.42"/>
</g>
<!-- 21&#45;&gt;18 -->
<g id="edge27" class="edge">
<title>21&#45;&gt;18</title>
<path fill="none" stroke="grey" stroke-width="2" d="M370.45,-503.88C372.73,-493.54 375.54,-480.06 377.5,-468 385.08,-421.33 390.9,-366.57 394,-334.44"/>
<polygon fill="grey" stroke="grey" stroke-width="2" points="397.48,-334.75 394.94,-324.46 390.51,-334.09 397.48,-334.75"/>
</g>
<!-- 21&#45;&gt;20 -->
<g id="edge32" class="edge">
<title>21&#45;&gt;20</title>
<path fill="none" stroke="grey" stroke-width="2" d="M359.33,-503.7C356.07,-495.81 352.13,-486.3 348.5,-477.55"/>
<polygon fill="grey" stroke="grey" stroke-width="2" points="351.65,-476 344.59,-468.1 345.18,-478.68 351.65,-476"/>
</g>
<!-- 22 -->
<g id="node23" class="node">
<title>22</title>
<path fill="none" stroke="#568ad8" stroke-width="2" d="M582,-396C582,-396 475,-396 475,-396 469,-396 463,-390 463,-384 463,-384 463,-372 463,-372 463,-366 469,-360 475,-360 475,-360 582,-360 582,-360 588,-360 594,-366 594,-372 594,-372 594,-384 594,-384 594,-390 588,-396 582,-396"/>
<text text-anchor="middle" x="528.5" y="-381" font-family="sans" font-size="10.00">abr</text>
<text text-anchor="middle" x="528.5" y="-370" font-family="sans" font-size="10.00">sample: vB_VpP_AC2_0</text>
</g>
<!-- 22&#45;&gt;18 -->
<g id="edge28" class="edge">
<title>22&#45;&gt;18</title>
<path fill="none" stroke="grey" stroke-width="2" d="M496.21,-359.88C478.63,-350.55 456.69,-338.92 437.87,-328.94"/>
<polygon fill="grey" stroke="grey" stroke-width="2" points="439.39,-325.78 428.91,-324.19 436.11,-331.97 439.39,-325.78"/>
</g>
<!-- 23 -->
<g id="node24" class="node">
<title>23</title>
<path fill="none" stroke="#56d8a2" stroke-width="2" d="M711.5,-180C711.5,-180 655.5,-180 655.5,-180 649.5,-180 643.5,-174 643.5,-168 643.5,-168 643.5,-156 643.5,-156 643.5,-150 649.5,-144 655.5,-144 655.5,-144 711.5,-144 711.5,-144 717.5,-144 723.5,-150 723.5,-156 723.5,-156 723.5,-168 723.5,-168 723.5,-174 717.5,-180 711.5,-180"/>
<text text-anchor="middle" x="683.5" y="-159.5" font-family="sans" font-size="10.00">genome_stat</text>
</g>
<!-- 23&#45;&gt;1 -->
<g id="edge5" class="edge">
<title>23&#45;&gt;1</title>
<path fill="none" stroke="grey" stroke-width="2" d="M643.46,-146.33C616.02,-136.27 579.23,-122.79 548.84,-111.65"/>
<polygon fill="grey" stroke="grey" stroke-width="2" points="549.81,-108.28 539.22,-108.12 547.4,-114.85 549.81,-108.28"/>
</g>
<!-- 24 -->
<g id="node25" class="node">
<title>24</title>
<path fill="none" stroke="#56d86b" stroke-width="2" d="M713.5,-540C713.5,-540 631.5,-540 631.5,-540 625.5,-540 619.5,-534 619.5,-528 619.5,-528 619.5,-516 619.5,-516 619.5,-510 625.5,-504 631.5,-504 631.5,-504 713.5,-504 713.5,-504 719.5,-504 725.5,-510 725.5,-516 725.5,-516 725.5,-528 725.5,-528 725.5,-534 719.5,-540 713.5,-540"/>
<text text-anchor="middle" x="672.5" y="-519.5" font-family="sans" font-size="10.00">statistics_genome</text>
</g>
<!-- 24&#45;&gt;23 -->
<g id="edge34" class="edge">
<title>24&#45;&gt;23</title>
<path fill="none" stroke="grey" stroke-width="2" d="M683.07,-503.79C698.01,-477.77 723.5,-426.41 723.5,-379 723.5,-379 723.5,-379 723.5,-305 723.5,-263.48 707.46,-217.61 695.7,-189.54"/>
<polygon fill="grey" stroke="grey" stroke-width="2" points="698.77,-187.84 691.59,-180.05 692.35,-190.62 698.77,-187.84"/>
</g>
<!-- 25&#45;&gt;24 -->
<g id="edge35" class="edge">
<title>25&#45;&gt;24</title>
<path fill="none" stroke="grey" stroke-width="2" d="M628.08,-575.7C635.16,-567.3 643.78,-557.07 651.55,-547.86"/>
<polygon fill="grey" stroke="grey" stroke-width="2" points="654.31,-550.01 658.08,-540.1 648.96,-545.49 654.31,-550.01"/>
</g>
</g>
</svg>
